<?xml version="1.0" encoding="utf-8"?>
<!-- Generator: Adobe Illustrator 23.0.4, SVG Export Plug-In . SVG Version: 6.00 Build 0)  -->
<svg version="1.1" id="Layer_1" xmlns="http://www.w3.org/2000/svg" xmlns:xlink="http://www.w3.org/1999/xlink" x="0px" y="0px"
	 viewBox="0 0 81.9 158.6" style="enable-background:new 0 0 81.9 158.6;" xml:space="preserve">
<style type="text/css">
	.st0{fill:#E3E9F6;}
	.st1{fill:#CFDAE7;}
	.st2{fill:#A4AFC2;}
	.st3{fill:#C2CAD9;}
	.st4{fill:#262626;}
	.st5{fill:#C5C0BB;}
	.st6{fill:#24201F;}
	.st7{clip-path:url(#SVGID_2_);fill:#847F80;}
	.st8{fill:#2D2B2C;}
	.st9{fill:#484445;}
	.st10{fill:#A72832;}
	.st11{fill:#962B2D;}
	.st12{fill:#C03140;}
	.st13{fill:#BE2A39;}
	.st14{fill:#D6D6D6;}
	.st15{fill:#D8D8D7;}
	.st16{fill:#DAD9D8;}
	.st17{fill:#D2B5B2;}
	.st18{fill:#BB222D;}
	.st19{fill:#141313;}
	.st20{fill:#554B44;}
	.st21{fill:#716C68;}
	.st22{fill:#98CC76;}
	.st23{fill:#7CC05B;}
	.st24{fill:none;stroke:#58A345;stroke-width:1.2922;stroke-linecap:round;stroke-miterlimit:10;}
	.st25{opacity:0.6;fill:#58A345;}
	.st26{fill:#D1887F;}
	.st27{fill:#EBB0A0;}
	.st28{fill:#C82039;}
	.st29{fill:#87171E;}
	.st30{fill:#E8C120;}
	.st31{fill:#F8D51C;}
	.st32{fill:#D71D4E;}
	.st33{fill:#A51E23;}
	.st34{fill:#555B51;}
	.st35{fill:#E0B724;}
	.st36{fill:#EDC11B;}
	.st37{fill:#FFD00A;}
	.st38{fill:#6B7499;}
	.st39{fill:#7985A5;}
	.st40{fill:#5D6988;}
	.st41{fill:#FFFFFF;}
	.st42{fill:#FDDD52;}
	.st43{fill:none;stroke:#FBE27D;stroke-width:0.1615;stroke-miterlimit:10;}
	.st44{fill:none;stroke:#FBD742;stroke-width:0.1615;stroke-miterlimit:10;}
	.st45{fill:#E9EFF8;fill-opacity:0.47;}
	.st46{fill:#E1E6F4;}
	.st47{fill:#D7DAE5;}
	.st48{fill:#FFFFFF;fill-opacity:0.7;}
	.st49{fill:#B4BDCE;}
	.st50{fill:#A8B1BE;}
	.st51{fill:#CACCD2;}
	.st52{fill:#737883;}
	.st53{fill:#969EB3;}
	.st54{fill:#349144;}
	.st55{fill:#33803E;}
	.st56{fill:#2C6E37;}
	.st57{fill:#338440;}
	.st58{opacity:0.62;}
	.st59{fill:#40A748;}
	.st60{fill:url(#SVGID_3_);}
	.st61{fill:#E0E8F2;}
	.st62{fill:#C0CFDA;}
	.st63{fill:url(#SVGID_4_);}
	.st64{fill:none;stroke:#FAEAAB;stroke-width:1.2922;stroke-linecap:round;stroke-linejoin:round;}
	.st65{fill:#FBE48B;}
	.st66{fill:none;stroke:#C0CFDA;stroke-width:1.2922;stroke-linejoin:round;stroke-miterlimit:10;}
	.st67{fill:none;stroke:#E0E8F2;stroke-width:0.6461;stroke-miterlimit:10;}
	.st68{opacity:0.63;}
	.st69{fill:#FFFFFF;stroke:#D3E0E7;stroke-width:1.2922;stroke-linecap:round;stroke-linejoin:round;stroke-miterlimit:10;}
	
		.st70{fill:#DEE3E9;fill-opacity:0.4;stroke:#D3E0E7;stroke-width:1.2922;stroke-linecap:round;stroke-linejoin:round;stroke-miterlimit:10;}
	
		.st71{fill:#E0E7ED;fill-opacity:0.4;stroke:#D3E0E7;stroke-width:1.2922;stroke-linecap:round;stroke-linejoin:round;stroke-miterlimit:10;}
	
		.st72{fill:none;stroke:#FFFFFF;stroke-width:3.2305;stroke-linecap:round;stroke-linejoin:round;stroke-miterlimit:10;stroke-opacity:0.53;}
	.st73{opacity:0.7;}
	
		.st74{opacity:0.63;fill:#FFFFFF;stroke:#D3E0E7;stroke-width:1.2922;stroke-linecap:round;stroke-linejoin:round;stroke-miterlimit:10;}
	.st75{fill:#7B7C7D;}
	.st76{fill:#949499;}
	.st77{fill:#8C8C8D;}
	.st78{opacity:0.4;fill:#E7EEF8;}
	.st79{fill:none;stroke:#D3E0E7;stroke-width:1.2922;stroke-linecap:round;stroke-linejoin:round;stroke-miterlimit:10;}
	.st80{opacity:0.4;fill:#E0E7ED;}
	.st81{fill:none;stroke:#FFFFFF;stroke-width:2.5844;stroke-linecap:round;stroke-linejoin:round;stroke-miterlimit:10;}
	.st82{opacity:0.4;fill:#FFFFFF;}
	.st83{opacity:0.19;}
	.st84{fill:#444445;}
	.st85{fill:#2B2B2B;}
	.st86{fill:#3A3A3A;}
	.st87{fill:#383838;}
	.st88{opacity:0.63;fill:#EFF3FA;}
	.st89{fill:none;stroke:#C0CFDA;stroke-width:1.2922;stroke-linecap:round;stroke-linejoin:round;stroke-miterlimit:10;}
	.st90{fill:none;stroke:#CAE6F8;stroke-width:0.6461;stroke-linecap:round;stroke-linejoin:round;stroke-miterlimit:10;}
</style>
<g id="CO2_2_">
	<g>
		<rect x="53.9" y="32.68" class="st35" width="4.75" height="4.06"/>
		<g>
			<polygon class="st36" points="30.33,20.4 30.33,14.4 26.21,14.4 26.21,18.56 28.23,20.4 			"/>
			<polygon class="st37" points="26.21,30.55 28.86,30.55 26.21,27.95 			"/>
			<polygon class="st36" points="28.23,20.4 26.21,20.4 26.21,27.95 28.86,30.55 30.33,30.55 30.33,20.4 			"/>
			<polygon class="st37" points="26.21,18.56 26.21,20.4 28.23,20.4 			"/>
		</g>
		<path class="st38" d="M36.35,12.18c-0.25-0.55-0.8-0.94-1.44-0.94H21.63c-0.87,0-1.58,0.71-1.58,1.58v0c0,0.18,0.04,0.34,0.09,0.5
			C22.97,13.49,35.12,14.11,36.35,12.18z"/>
		<path class="st39" d="M28.27,9.89c-2.87,0-6.64,1.34-6.64,1.34h13.27C34.91,11.24,31.14,9.89,28.27,9.89z"/>
		<path class="st40" d="M20.14,13.32c0.21,0.62,0.8,1.08,1.49,1.08h13.27c0.87,0,1.58-0.71,1.58-1.58v0c0-0.23-0.05-0.44-0.14-0.64
			C35.12,14.11,22.97,13.49,20.14,13.32z"/>
		<g>
			<polygon class="st37" points="27.84,20.4 22.74,20.4 22.74,22.41 30.12,22.41 			"/>
			<polygon class="st36" points="22.74,22.41 22.74,24.55 29.44,24.55 31.75,24.55 32.55,24.55 30.12,22.41 			"/>
			<polygon class="st36" points="46.7,22.41 45.1,20.4 31.75,20.4 29.44,20.4 27.84,20.4 30.12,22.41 			"/>
			<polygon class="st35" points="30.12,22.41 32.55,24.55 48.39,24.55 46.7,22.41 			"/>
			<polygon class="st37" points="53.31,22.41 53.31,20.4 45.1,20.4 46.7,22.41 			"/>
			<polygon class="st36" points="46.7,22.41 48.39,24.55 53.31,24.55 53.31,22.41 			"/>
		</g>
		<circle class="st38" cx="74.24" cy="20.1" r="5.37"/>
		<circle class="st40" cx="74.24" cy="20.1" r="2.96"/>
		<g>
			<polygon class="st35" points="61.66,22.41 61.66,24.55 68.38,24.55 66.23,22.41 			"/>
			<polygon class="st36" points="64.2,20.4 61.66,20.4 61.66,22.41 66.23,22.41 			"/>
			<polygon class="st37" points="81.9,22.41 81.9,20.4 64.2,20.4 66.23,22.41 			"/>
			<polygon class="st36" points="66.23,22.41 68.38,24.55 81.9,24.55 81.9,22.41 			"/>
		</g>
		<g>
			<polygon class="st36" points="59.07,33.59 52.28,26.97 52.28,33.59 			"/>
			<polygon class="st35" points="60.26,33.59 60.26,26.8 52.28,26.8 52.28,26.97 59.07,33.59 			"/>
		</g>
		<path class="st37" d="M57.42,21.57l-5.58-7.59c-0.67,0.68-1.45,1.23-2.33,1.64l5.62,7.64L57.42,21.57z"/>
		<path class="st36" d="M51.83,13.98l-5.02-6.82l-2.29,1.68l4.98,6.77C50.38,15.21,51.17,14.66,51.83,13.98z"/>
		<path class="st37" d="M45.72,15.92c-4.39,0-7.96-3.57-7.96-7.96S41.33,0,45.72,0s7.96,3.57,7.96,7.96S50.11,15.92,45.72,15.92z
			 M45.72,1.23c-3.71,0-6.73,3.02-6.73,6.73s3.02,6.73,6.73,6.73c3.71,0,6.73-3.02,6.73-6.73S49.43,1.23,45.72,1.23z"/>
		<polygon class="st36" points="68.03,8.84 67.36,8.34 56.82,22.82 57.41,23.25 		"/>
		<polygon class="st37" points="65.75,7.15 55.13,21.57 56.82,22.82 67.36,8.34 		"/>
		<circle class="st41" cx="66.82" cy="7.96" r="7.34"/>
		<path class="st38" d="M67.99,6.97c0.28-0.38,0.33-0.87,0.49-1.31c0.15-0.44,0.3-0.89,0.43-1.34c0.12-0.45,0.26-0.9,0.38-1.36
			c0.01-0.02,0-0.05-0.02-0.06c-0.03-0.02-0.07-0.02-0.09,0.01c-0.29,0.38-0.55,0.77-0.82,1.15c-0.26,0.39-0.52,0.78-0.76,1.18
			c-0.25,0.4-0.59,0.75-0.71,1.2c-0.12,0.45-0.2,0.93-0.1,1.5c0,0.01,0,0.01,0.01,0.02c0.02,0.04,0.07,0.05,0.1,0.03
			C67.4,7.72,67.71,7.36,67.99,6.97z"/>
		<path class="st36" d="M60.93,17.14l-1.7,2.29c0.77,0.76,1.25,1.82,1.25,2.99c0,2.32-1.88,4.21-4.21,4.21
			c-0.73,0-1.41-0.19-2.01-0.51l-1.7,2.29c1.08,0.67,2.35,1.07,3.71,1.07c3.89,0,7.05-3.16,7.05-7.05
			C63.32,20.31,62.39,18.43,60.93,17.14z"/>
		<path class="st37" d="M52.06,22.41c0-2.32,1.88-4.21,4.21-4.21c1.16,0,2.2,0.47,2.96,1.22l1.7-2.29c-1.24-1.1-2.88-1.78-4.66-1.78
			c-3.89,0-7.05,3.16-7.05,7.05c0,2.53,1.34,4.74,3.34,5.98l1.7-2.29C52.95,25.4,52.06,24.01,52.06,22.41z"/>
		<path class="st42" d="M52.06,22.41c0,1.6,0.89,2.98,2.2,3.7l1.12-1.5c-0.87-0.35-1.48-1.2-1.48-2.2c0-1.31,1.06-2.37,2.37-2.37
			c0.75,0,1.41,0.35,1.84,0.89l1.12-1.51c-0.76-0.75-1.81-1.22-2.96-1.22C53.95,18.2,52.06,20.09,52.06,22.41z"/>
		<path class="st36" d="M58.64,22.41c0,1.31-1.06,2.37-2.37,2.37c-0.32,0-0.62-0.06-0.89-0.18l-1.12,1.5
			c0.6,0.33,1.28,0.51,2.01,0.51c2.32,0,4.21-1.88,4.21-4.21c0-1.17-0.48-2.22-1.25-2.99l-1.12,1.51
			C58.44,21.34,58.64,21.85,58.64,22.41z"/>
		<path class="st37" d="M58.11,20.93c-0.43-0.54-1.09-0.89-1.84-0.89c-1.31,0-2.37,1.06-2.37,2.37c0,0.99,0.61,1.84,1.48,2.2
			c0.28,0.11,0.58,0.18,0.89,0.18c1.31,0,2.37-1.06,2.37-2.37C58.64,21.85,58.44,21.34,58.11,20.93z"/>
		<path class="st35" d="M57.13,27.23c2.32,0,4.21-1.88,4.21-4.21c0-1.07-0.59-2.69-2.07-3.65l-0.04,0.05
			c0.77,0.76,1.25,1.82,1.25,2.99c0,2.32-1.88,4.21-4.21,4.21c-0.73,0-1.41-0.19-2.01-0.51l-0.03,0.05
			C55.16,27.01,56.48,27.23,57.13,27.23z"/>
		<g>
			<g>
				<path class="st35" d="M56.26,20.24V20c0.72,0,1.4,0.33,1.87,0.9C58.13,20.91,57.16,20.24,56.26,20.24z"/>
			</g>
			<g>
				<path class="st35" d="M55.35,24.63c-0.91-0.37-1.5-1.24-1.5-2.23h0.24C54.01,23.63,55.35,24.63,55.35,24.63z"/>
			</g>
			<g>
				<path class="st35" d="M54.09,22.41h-0.24c0-1.33,1.08-2.41,2.41-2.41v0.24C55.06,20.24,54.09,21.21,54.09,22.41z"/>
			</g>
		</g>
		<g>
			<path class="st43" d="M58.11,20.93c-0.43-0.54-1.09-0.89-1.84-0.89"/>
			<path class="st43" d="M53.9,22.41c0,0.99,0.61,1.84,1.48,2.2"/>
			<path class="st43" d="M56.27,20.04c-1.31,0-2.37,1.06-2.37,2.37"/>
		</g>
		<g>
			<path class="st44" d="M49.22,22.41c0,2.53,1.34,4.74,3.34,5.98"/>
			<path class="st44" d="M56.27,15.36c-3.89,0-7.05,3.16-7.05,7.05"/>
			<path class="st44" d="M60.93,17.14c-1.24-1.1-2.88-1.78-4.66-1.78"/>
		</g>
		<path class="st41" d="M47.68,2.55c1.51,0,2.92,0.46,4.09,1.24c-1.32-1.92-3.54-3.18-6.04-3.18c-4.06,0-7.34,3.29-7.34,7.34
			c0,2.54,1.29,4.78,3.26,6.1c-0.82-1.18-1.3-2.62-1.3-4.17C40.33,5.84,43.62,2.55,47.68,2.55z"/>
		<path class="st41" d="M53.06,7.96c0-1.55-0.48-2.98-1.3-4.17c-1.17-0.78-2.57-1.24-4.09-1.24c-4.06,0-7.34,3.29-7.34,7.34
			c0,1.55,0.48,2.98,1.3,4.17c1.17,0.78,2.57,1.24,4.09,1.24C49.77,15.3,53.06,12.01,53.06,7.96z"/>
		<path class="st45" d="M47.68,2.55c1.51,0,2.92,0.46,4.09,1.24c-1.32-1.92-3.54-3.18-6.04-3.18c-4.06,0-7.34,3.29-7.34,7.34
			c0,2.54,1.29,4.78,3.26,6.1c-0.82-1.18-1.3-2.62-1.3-4.17C40.33,5.84,43.62,2.55,47.68,2.55z"/>
		<path class="st45" d="M68.88,2.55c1.51,0,2.92,0.46,4.09,1.24c-1.32-1.92-3.54-3.18-6.04-3.18c-4.06,0-7.34,3.29-7.34,7.34
			c0,2.54,1.29,4.78,3.26,6.1c-0.82-1.18-1.3-2.62-1.3-4.17C61.54,5.84,64.82,2.55,68.88,2.55z"/>
		<path class="st37" d="M45.72,15.92c-4.39,0-7.96-3.57-7.96-7.96S41.33,0,45.72,0s7.96,3.57,7.96,7.96S50.11,15.92,45.72,15.92z
			 M45.72,1.23c-3.71,0-6.73,3.02-6.73,6.73s3.02,6.73,6.73,6.73c3.71,0,6.73-3.02,6.73-6.73S49.43,1.23,45.72,1.23z"/>
		<path class="st38" d="M43.47,6.25c0.28,0.38,0.47,0.83,0.85,1.11C44.7,7.64,45.11,7.89,45.67,8c0.01,0,0.02,0,0.02,0
			c0.04,0,0.07-0.04,0.07-0.08c-0.06-0.57-0.28-1-0.54-1.4c-0.25-0.4-0.68-0.63-1.03-0.94c-0.35-0.31-0.71-0.61-1.08-0.9
			c-0.38-0.28-0.74-0.58-1.12-0.86c-0.02-0.01-0.05-0.02-0.07,0c-0.03,0.02-0.04,0.06-0.02,0.09c0.24,0.41,0.51,0.79,0.76,1.19"/>
		<path class="st37" d="M66.82,15.92c-4.39,0-7.96-3.57-7.96-7.96S62.43,0,66.82,0s7.96,3.57,7.96,7.96S71.21,15.92,66.82,15.92z
			 M66.82,1.23c-3.71,0-6.73,3.02-6.73,6.73s3.02,6.73,6.73,6.73c3.71,0,6.73-3.02,6.73-6.73S70.53,1.23,66.82,1.23z"/>
		<g>
			<rect x="38.07" y="26.34" class="st36" width="5.25" height="0.46"/>
			<rect x="38.07" y="18.15" class="st37" width="5.25" height="8.19"/>
		</g>
	</g>
	<g>
		<g>
			<path class="st46" d="M23.85,29.13c-0.79,0-1.42,0.64-1.42,1.42v5.53c0,0.79,0.64,1.42,1.42,1.42h4.35v-8.37H23.85z"/>
			<path class="st47" d="M32.69,29.13H28.2v8.37h4.49c0.79,0,1.42-0.64,1.42-1.42v-5.53C34.11,29.76,33.48,29.13,32.69,29.13z"/>
		</g>
		<path class="st48" d="M24.68,36.53L24.68,36.53c-0.35,0-0.63-0.28-0.63-0.63v-5.55c0-0.35,0.28-0.63,0.63-0.63l0,0
			c0.35,0,0.63,0.28,0.63,0.63v5.55C25.31,36.24,25.03,36.53,24.68,36.53z"/>
		<g>
			<path class="st49" d="M28.2,34.3c-13.38,0.03-20.35,7.63-23.84,14c-3.73,6.82-4.33,13.55-4.36,13.83h28.2V34.3z"/>
			<path class="st50" d="M56.54,62.13c-0.02-0.28-0.62-7.01-4.36-13.83C48.68,41.91,41.7,34.3,28.27,34.3c-0.02,0-0.05,0-0.07,0
				v27.84H56.54z"/>
			<path class="st46" d="M28.2,62.13H0.01C0,62.15,0,157.17,0,157.17h28.2V62.13z"/>
			<path class="st51" d="M0,157.17c0,0.79,0.64,1.42,1.42,1.42H28.2v-1.42H0z"/>
			<path class="st51" d="M28.2,158.6h26.92c0.79,0,1.42-0.64,1.42-1.42H28.2V158.6z"/>
			<path class="st47" d="M28.2,62.13v95.04h28.34c0,0,0-95.02-0.01-95.04H28.2z"/>
		</g>
		<path class="st48" d="M12.98,157.17V58.3c0-1.54,1.26-2.8,2.8-2.8h0c1.54,0,2.8,1.26,2.8,2.8v98.87H12.98z"/>
	</g>
</g>
</svg>
