<?xml version="1.0" encoding="utf-8"?>
<!-- Generator: Adobe Illustrator 23.0.4, SVG Export Plug-In . SVG Version: 6.00 Build 0)  -->
<svg version="1.1" id="Layer_1" xmlns="http://www.w3.org/2000/svg" xmlns:xlink="http://www.w3.org/1999/xlink" x="0px" y="0px"
	 viewBox="0 0 68.21 111.84" style="enable-background:new 0 0 68.21 111.84;" xml:space="preserve">
<style type="text/css">
	.st0{fill:#E3E9F6;}
	.st1{fill:#CFDAE7;}
	.st2{fill:#A4AFC2;}
	.st3{fill:#C2CAD9;}
	.st4{fill:#262626;}
	.st5{fill:#C5C0BB;}
	.st6{fill:#24201F;}
	.st7{clip-path:url(#SVGID_2_);fill:#847F80;}
	.st8{fill:#2D2B2C;}
	.st9{fill:#484445;}
	.st10{fill:#A72832;}
	.st11{fill:#962B2D;}
	.st12{fill:#C03140;}
	.st13{fill:#BE2A39;}
	.st14{fill:#D6D6D6;}
	.st15{fill:#D8D8D7;}
	.st16{fill:#DAD9D8;}
	.st17{fill:#D2B5B2;}
	.st18{fill:#BB222D;}
	.st19{fill:#141313;}
	.st20{fill:#554B44;}
	.st21{fill:#716C68;}
	.st22{fill:#98CC76;}
	.st23{fill:#7CC05B;}
	.st24{fill:none;stroke:#58A345;stroke-width:1.2922;stroke-linecap:round;stroke-miterlimit:10;}
	.st25{opacity:0.6;fill:#58A345;}
	.st26{fill:#D1887F;}
	.st27{fill:#EBB0A0;}
	.st28{fill:#C82039;}
	.st29{fill:#87171E;}
	.st30{fill:#E8C120;}
	.st31{fill:#F8D51C;}
	.st32{fill:#D71D4E;}
	.st33{fill:#A51E23;}
	.st34{fill:#555B51;}
	.st35{fill:#E0B724;}
	.st36{fill:#EDC11B;}
	.st37{fill:#FFD00A;}
	.st38{fill:#6B7499;}
	.st39{fill:#7985A5;}
	.st40{fill:#5D6988;}
	.st41{fill:#FFFFFF;}
	.st42{fill:#FDDD52;}
	.st43{fill:none;stroke:#FBE27D;stroke-width:0.1615;stroke-miterlimit:10;}
	.st44{fill:none;stroke:#FBD742;stroke-width:0.1615;stroke-miterlimit:10;}
	.st45{fill:#E9EFF8;fill-opacity:0.47;}
	.st46{fill:#E1E6F4;}
	.st47{fill:#D7DAE5;}
	.st48{fill:#FFFFFF;fill-opacity:0.7;}
	.st49{fill:#B4BDCE;}
	.st50{fill:#A8B1BE;}
	.st51{fill:#CACCD2;}
	.st52{fill:#737883;}
	.st53{fill:#969EB3;}
	.st54{fill:#349144;}
	.st55{fill:#33803E;}
	.st56{fill:#2C6E37;}
	.st57{fill:#338440;}
	.st58{opacity:0.62;}
	.st59{fill:#40A748;}
	.st60{fill:url(#SVGID_3_);}
	.st61{fill:#E0E8F2;}
	.st62{fill:#C0CFDA;}
	.st63{fill:url(#SVGID_4_);}
	.st64{fill:none;stroke:#FAEAAB;stroke-width:1.2922;stroke-linecap:round;stroke-linejoin:round;}
	.st65{fill:#FBE48B;}
	.st66{fill:none;stroke:#C0CFDA;stroke-width:1.2922;stroke-linejoin:round;stroke-miterlimit:10;}
	.st67{fill:none;stroke:#E0E8F2;stroke-width:0.6461;stroke-miterlimit:10;}
	.st68{opacity:0.63;}
	.st69{fill:#FFFFFF;stroke:#D3E0E7;stroke-width:1.2922;stroke-linecap:round;stroke-linejoin:round;stroke-miterlimit:10;}
	
		.st70{fill:#DEE3E9;fill-opacity:0.4;stroke:#D3E0E7;stroke-width:1.2922;stroke-linecap:round;stroke-linejoin:round;stroke-miterlimit:10;}
	
		.st71{fill:#E0E7ED;fill-opacity:0.4;stroke:#D3E0E7;stroke-width:1.2922;stroke-linecap:round;stroke-linejoin:round;stroke-miterlimit:10;}
	
		.st72{fill:none;stroke:#FFFFFF;stroke-width:3.2305;stroke-linecap:round;stroke-linejoin:round;stroke-miterlimit:10;stroke-opacity:0.53;}
	.st73{opacity:0.7;}
	
		.st74{opacity:0.63;fill:#FFFFFF;stroke:#D3E0E7;stroke-width:1.2922;stroke-linecap:round;stroke-linejoin:round;stroke-miterlimit:10;}
	.st75{fill:#7B7C7D;}
	.st76{fill:#949499;}
	.st77{fill:#8C8C8D;}
	.st78{opacity:0.4;fill:#E7EEF8;}
	.st79{fill:none;stroke:#D3E0E7;stroke-width:1.2922;stroke-linecap:round;stroke-linejoin:round;stroke-miterlimit:10;}
	.st80{opacity:0.4;fill:#E0E7ED;}
	.st81{fill:none;stroke:#FFFFFF;stroke-width:2.5844;stroke-linecap:round;stroke-linejoin:round;stroke-miterlimit:10;}
	.st82{opacity:0.4;fill:#FFFFFF;}
	.st83{opacity:0.19;}
	.st84{fill:#444445;}
	.st85{fill:#2B2B2B;}
	.st86{fill:#3A3A3A;}
	.st87{fill:#383838;}
	.st88{opacity:0.63;fill:#EFF3FA;}
	.st89{fill:none;stroke:#C0CFDA;stroke-width:1.2922;stroke-linecap:round;stroke-linejoin:round;stroke-miterlimit:10;}
	.st90{fill:none;stroke:#CAE6F8;stroke-width:0.6461;stroke-linecap:round;stroke-linejoin:round;stroke-miterlimit:10;}
</style>
<g id="filter_2_">
	<path class="st52" d="M54.03,5.05C51.3,12.12,40.37,17.41,27.3,17.41c-13.07,0-24-5.29-26.73-12.37v22.54h53.45V5.05z"/>
	<rect y="27.59" class="st53" width="54.6" height="2.51"/>
	<path class="st53" d="M27.3,17.41c13.07,0,24-5.29,26.73-12.37V4.73c0-0.87-53.45-0.87-53.45,0v0.32
		C3.3,12.12,14.23,17.41,27.3,17.41z"/>
	<g>
		<path class="st52" d="M27.33,6.14c-1.77,0-3.21-1.39-3.21-3.1c0-0.31,0.05-0.61,0.14-0.89c-0.12,0.34-0.2,0.71-0.2,1.1v3.62
			c0,1.78,1.46,3.24,3.24,3.24c1.78,0,3.24-1.46,3.24-3.24V3.24c0-0.03,0-0.07-0.01-0.1C30.48,4.8,29.07,6.14,27.33,6.14z"/>
		<path class="st53" d="M27.33,6.14c1.74,0,3.15-1.33,3.2-3C30.48,1.4,29.05,0,27.3,0c-1.4,0-2.59,0.9-3.04,2.14
			c-0.09,0.28-0.14,0.58-0.14,0.89C24.12,4.75,25.56,6.14,27.33,6.14z"/>
	</g>
	<g>
		<path class="st54" d="M63.57,98.47h-7.32v6.88h7.32c1.68,0,3.06-1.38,3.06-3.06v-0.76C66.63,99.85,65.25,98.47,63.57,98.47z"/>
		<path class="st55" d="M51.68,98.47c-1.68,0-3.06,1.38-3.06,3.06v0.76c0,1.68,1.38,3.06,3.06,3.06h4.57v-6.88H51.68z"/>
	</g>
	<g>
		<path class="st53" d="M68.21,97.9c0-0.51-0.42-0.93-0.93-0.93h-5.25c-0.51,0-0.93,0.42-0.93,0.93v2.6h7.11V97.9z"/>
		<path class="st52" d="M61.1,100.51v5.41c0,0.51,0.42,0.93,0.93,0.93h5.25c0.51,0,0.93-0.42,0.93-0.93v-5.41H61.1z"/>
	</g>
	<g>
		<path class="st54" d="M22.5,30.1H0.57v80.16c0,0.09,0.01,0.18,0.02,0.26h21.9V30.1z"/>
		<path class="st56" d="M0.59,110.52c0.1,0.75,0.62,1.32,1.24,1.32H22.5v-1.32H0.59z"/>
		<path class="st57" d="M54.01,110.52c0.01-0.09,0.02-0.17,0.02-0.26V30.1H22.5v80.42H54.01z"/>
		<path class="st56" d="M22.5,110.52v1.32h30.27c0.62,0,1.14-0.58,1.24-1.32H22.5z"/>
	</g>
	<g class="st58">
		<polygon class="st59" points="1.76,30.02 9.51,110.52 11.5,110.52 19.26,30.02 		"/>
	</g>
</g>
</svg>
