<?xml version="1.0" encoding="utf-8"?>
<!-- Generator: Adobe Illustrator 23.0.4, SVG Export Plug-In . SVG Version: 6.00 Build 0)  -->
<svg version="1.1" id="Layer_1" xmlns="http://www.w3.org/2000/svg" xmlns:xlink="http://www.w3.org/1999/xlink" x="0px" y="0px"
	 viewBox="0 0 25.06 23.92" style="enable-background:new 0 0 25.06 23.92;" xml:space="preserve">
<style type="text/css">
	.st0{fill:#C82039;}
	.st1{fill:#87171E;}
	.st2{fill:#E8C120;}
	.st3{fill:#F8D51C;}
	.st4{fill:#D71D4E;}
	.st5{fill:#A51E23;}
	.st6{fill:#555B51;}
</style>
<g id="fish_02">
	<path class="st0" d="M7.12,6.64c1.46-2.12,4.66-3.84,7.16-3.81c3.01,0.03,5.49,1.72,7.32,3.78c0.03,0.04,0.07,0.08,0.1,0.12
		C21.33,3.18,16.5,0,13.48,0c-3.14,0-9.13,5.4-9.13,7.14c0,0.74,0.58,2.55,1.6,4.39c0,0,0.01,0,0.01,0
		C6.23,11.4,5.66,8.76,7.12,6.64z"/>
	<path class="st1" d="M14.28,21.39c-11.46-2.09-6.94-5.48-7.7-6.21c-0.33-0.31-0.61-0.35-0.88-0.29c-0.71,0.98-1.13,1.95-1.15,2.68
		c-0.07,2.35,4.24,6.35,8.84,6.35c4.13,0,7.55-2.41,8.22-5.58C19.43,20.25,16.62,21.81,14.28,21.39z"/>
	<path class="st2" d="M2.48,13.5H0.01c0.09,2.02,1.14,3.93,2.08,3.93c0.7,0,2.3-1.04,3.19-2.39c-0.21,0.09-0.43,0.18-0.66,0.18
		C3.49,15.22,2.57,14.46,2.48,13.5z"/>
	<path class="st3" d="M2.46,13.35c0-1.03,0.97-1.87,2.16-1.87c0.27,0,0.46,0.08,0.66,0.13C4.29,10.35,2.4,9.53,1.55,9.53
		C0.38,9.53,0,11.1,0,13.22c0,0.09,0,0.19,0.01,0.28h2.47C2.47,13.45,2.46,13.4,2.46,13.35z"/>
	<path class="st4" d="M2.46,13.35c0,0.05,0.01,0.1,0.02,0.15h17.39c-0.03-0.35-0.06-0.71-0.06-1.07c0-2.34,0.69-4.43,1.78-5.82
		c-1.82-2.06-4.3-3.75-7.32-3.78c-2.5-0.02-5.7,1.69-7.16,3.81c-1.46,2.12-0.88,4.76-1.16,4.89c0,0-0.01,0-0.01,0
		c-0.27,0.13-0.47,0.12-0.67,0.07c-0.2-0.05-0.39-0.13-0.66-0.13C3.43,11.47,2.46,12.31,2.46,13.35z"/>
	<path class="st5" d="M2.48,13.5c0.09,0.96,1.01,1.72,2.14,1.72c0.23,0,0.44-0.09,0.66-0.18c0.14-0.06,0.28-0.12,0.43-0.15
		c0.27-0.06,0.55-0.02,0.88,0.29c0.76,0.73-3.76,4.12,7.7,6.21c2.33,0.43,5.15-1.14,7.32-3.05c0.01-0.01,0.02-0.02,0.04-0.03
		c-0.94-1.18-1.59-2.88-1.77-4.81H2.48z"/>
	<path class="st3" d="M19.81,12.43c0,0.37,0.02,0.72,0.06,1.07h5.19c0-0.03,0.01-0.06,0.01-0.08c0-1.22-1.2-4.2-3.36-6.7
		c-0.03-0.04-0.07-0.08-0.1-0.12C20.51,8,19.81,10.09,19.81,12.43z M22.22,10.65c0.29,0,0.53,0.24,0.53,0.53
		c0,0.29-0.24,0.53-0.53,0.53c-0.29,0-0.53-0.24-0.53-0.53C21.7,10.89,21.93,10.65,22.22,10.65z"/>
	<path class="st2" d="M19.87,13.5c0.18,1.93,0.83,3.62,1.77,4.81c1.94-1.72,3.35-3.71,3.41-4.81H19.87z"/>
	<path class="st6" d="M22.22,11.7c0.29,0,0.53-0.24,0.53-0.53c0-0.29-0.24-0.53-0.53-0.53c-0.29,0-0.53,0.24-0.53,0.53
		C21.7,11.47,21.93,11.7,22.22,11.7z"/>
</g>
</svg>
