<?xml version="1.0" encoding="utf-8"?>
<!-- Generator: Adobe Illustrator 23.0.4, SVG Export Plug-In . SVG Version: 6.00 Build 0)  -->
<svg version="1.1" id="Layer_1" xmlns="http://www.w3.org/2000/svg" xmlns:xlink="http://www.w3.org/1999/xlink" x="0px" y="0px"
	 viewBox="0 0 10.83 93.5" style="enable-background:new 0 0 10.83 93.5;" xml:space="preserve">
<style type="text/css">
	.st0{fill:#E3E9F6;}
	.st1{fill:#CFDAE7;}
	.st2{fill:#A4AFC2;}
	.st3{fill:#C2CAD9;}
	.st4{fill:#262626;}
	.st5{fill:#C5C0BB;}
	.st6{fill:#24201F;}
	.st7{clip-path:url(#SVGID_2_);fill:#847F80;}
	.st8{fill:#2D2B2C;}
	.st9{fill:#484445;}
	.st10{fill:#A72832;}
	.st11{fill:#962B2D;}
	.st12{fill:#C03140;}
	.st13{fill:#BE2A39;}
	.st14{fill:#D6D6D6;}
	.st15{fill:#D8D8D7;}
	.st16{fill:#DAD9D8;}
	.st17{fill:#D2B5B2;}
	.st18{fill:#BB222D;}
	.st19{fill:#141313;}
	.st20{fill:#554B44;}
	.st21{fill:#716C68;}
	.st22{fill:#98CC76;}
	.st23{fill:#7CC05B;}
	.st24{fill:none;stroke:#58A345;stroke-width:1.2922;stroke-linecap:round;stroke-miterlimit:10;}
	.st25{opacity:0.6;fill:#58A345;}
	.st26{fill:#D1887F;}
	.st27{fill:#EBB0A0;}
	.st28{fill:#C82039;}
	.st29{fill:#87171E;}
	.st30{fill:#E8C120;}
	.st31{fill:#F8D51C;}
	.st32{fill:#D71D4E;}
	.st33{fill:#A51E23;}
	.st34{fill:#555B51;}
	.st35{fill:#E0B724;}
	.st36{fill:#EDC11B;}
	.st37{fill:#FFD00A;}
	.st38{fill:#6B7499;}
	.st39{fill:#7985A5;}
	.st40{fill:#5D6988;}
	.st41{fill:#FFFFFF;}
	.st42{fill:#FDDD52;}
	.st43{fill:none;stroke:#FBE27D;stroke-width:0.1615;stroke-miterlimit:10;}
	.st44{fill:none;stroke:#FBD742;stroke-width:0.1615;stroke-miterlimit:10;}
	.st45{fill:#E9EFF8;fill-opacity:0.47;}
	.st46{fill:#E1E6F4;}
	.st47{fill:#D7DAE5;}
	.st48{fill:#FFFFFF;fill-opacity:0.7;}
	.st49{fill:#B4BDCE;}
	.st50{fill:#A8B1BE;}
	.st51{fill:#CACCD2;}
	.st52{fill:#737883;}
	.st53{fill:#969EB3;}
	.st54{fill:#349144;}
	.st55{fill:#33803E;}
	.st56{fill:#2C6E37;}
	.st57{fill:#338440;}
	.st58{opacity:0.62;}
	.st59{fill:#40A748;}
	.st60{fill:url(#SVGID_3_);}
	.st61{fill:#E0E8F2;}
	.st62{fill:#C0CFDA;}
	.st63{fill:url(#SVGID_4_);}
	.st64{fill:none;stroke:#FAEAAB;stroke-width:1.2922;stroke-linecap:round;stroke-linejoin:round;}
	.st65{fill:#FBE48B;}
	.st66{fill:none;stroke:#C0CFDA;stroke-width:1.2922;stroke-linejoin:round;stroke-miterlimit:10;}
	.st67{fill:none;stroke:#E0E8F2;stroke-width:0.6461;stroke-miterlimit:10;}
	.st68{opacity:0.63;}
	.st69{fill:#FFFFFF;stroke:#D3E0E7;stroke-width:1.2922;stroke-linecap:round;stroke-linejoin:round;stroke-miterlimit:10;}
	
		.st70{fill:#DEE3E9;fill-opacity:0.4;stroke:#D3E0E7;stroke-width:1.2922;stroke-linecap:round;stroke-linejoin:round;stroke-miterlimit:10;}
	
		.st71{fill:#E0E7ED;fill-opacity:0.4;stroke:#D3E0E7;stroke-width:1.2922;stroke-linecap:round;stroke-linejoin:round;stroke-miterlimit:10;}
	
		.st72{fill:none;stroke:#FFFFFF;stroke-width:3.2305;stroke-linecap:round;stroke-linejoin:round;stroke-miterlimit:10;stroke-opacity:0.53;}
	.st73{opacity:0.7;}
	
		.st74{opacity:0.63;fill:#FFFFFF;stroke:#D3E0E7;stroke-width:1.2922;stroke-linecap:round;stroke-linejoin:round;stroke-miterlimit:10;}
	.st75{fill:#7B7C7D;}
	.st76{fill:#949499;}
	.st77{fill:#8C8C8D;}
	.st78{opacity:0.4;fill:#E7EEF8;}
	.st79{fill:none;stroke:#D3E0E7;stroke-width:1.2922;stroke-linecap:round;stroke-linejoin:round;stroke-miterlimit:10;}
	.st80{opacity:0.4;fill:#E0E7ED;}
	.st81{fill:none;stroke:#FFFFFF;stroke-width:2.5844;stroke-linecap:round;stroke-linejoin:round;stroke-miterlimit:10;}
	.st82{opacity:0.4;fill:#FFFFFF;}
	.st83{opacity:0.19;}
	.st84{fill:#444445;}
	.st85{fill:#2B2B2B;}
	.st86{fill:#3A3A3A;}
	.st87{fill:#383838;}
	.st88{opacity:0.63;fill:#EFF3FA;}
	.st89{fill:none;stroke:#C0CFDA;stroke-width:1.2922;stroke-linecap:round;stroke-linejoin:round;stroke-miterlimit:10;}
	.st90{fill:none;stroke:#CAE6F8;stroke-width:0.6461;stroke-linecap:round;stroke-linejoin:round;stroke-miterlimit:10;}
</style>
<g id="heater_2_">
	<path class="st4" d="M5.63,93.5H5.2c-2.26,0-4.1-1.85-4.1-4.1V16.79c0-2.26,1.85-4.1,4.1-4.1h0.43c2.26,0,4.1,1.85,4.1,4.1V89.4
		C9.73,91.65,7.89,93.5,5.63,93.5z"/>
	<rect x="1.86" y="15.69" class="st5" width="7.22" height="75.65"/>
	<rect x="0.5" y="10.33" class="st6" width="9.83" height="5.82"/>
	<g>
		<defs>
			<rect id="SVGID_1_" x="0.5" y="10.33" width="9.83" height="5.82"/>
		</defs>
		<clipPath id="SVGID_2_">
			<use xlink:href="#SVGID_1_"  style="overflow:visible;"/>
		</clipPath>
		<path class="st7" d="M1.95,16.88L1.95,16.88c-0.26,0-0.47-0.21-0.47-0.47v-6.09c0-0.26,0.21-0.47,0.47-0.47h0
			c0.26,0,0.47,0.21,0.47,0.47v6.09C2.42,16.66,2.21,16.88,1.95,16.88z"/>
		<path class="st7" d="M9.21,16.88H8.97c-0.31,0-0.57-0.26-0.57-0.57v-5.9c0-0.31,0.26-0.57,0.57-0.57h0.23
			c0.31,0,0.57,0.26,0.57,0.57v5.9C9.78,16.62,9.52,16.88,9.21,16.88z"/>
	</g>
	<path class="st8" d="M9.78,12H1.04C0.47,12,0,11.53,0,10.96V7.53c0-0.57,0.47-1.04,1.04-1.04l8.74,0c0.57,0,1.04,0.47,1.04,1.04
		v3.43C10.83,11.53,10.36,12,9.78,12z"/>
	<path class="st8" d="M10.65,12.69H0.18C0.08,12.69,0,12.6,0,12.5l0,0c0-0.1,0.08-0.18,0.18-0.18h10.47c0.1,0,0.18,0.08,0.18,0.18
		l0,0C10.83,12.6,10.75,12.69,10.65,12.69z"/>
	<path class="st8" d="M10.65,13.37H0.18c-0.1,0-0.18-0.08-0.18-0.18l0,0C0,13.09,0.08,13,0.18,13h10.47c0.1,0,0.18,0.08,0.18,0.18
		l0,0C10.83,13.29,10.75,13.37,10.65,13.37z"/>
	<path class="st8" d="M10.65,14.05H0.18c-0.1,0-0.18-0.08-0.18-0.18v0c0-0.1,0.08-0.18,0.18-0.18h10.47c0.1,0,0.18,0.08,0.18,0.18v0
		C10.83,13.97,10.75,14.05,10.65,14.05z"/>
	<path class="st8" d="M10.65,14.73H0.18c-0.1,0-0.18-0.08-0.18-0.18l0,0c0-0.1,0.08-0.18,0.18-0.18h10.47c0.1,0,0.18,0.08,0.18,0.18
		l0,0C10.83,14.65,10.75,14.73,10.65,14.73z"/>
	<path class="st8" d="M10.65,15.42H0.18c-0.1,0-0.18-0.08-0.18-0.18l0,0c0-0.1,0.08-0.18,0.18-0.18h10.47c0.1,0,0.18,0.08,0.18,0.18
		l0,0C10.83,15.33,10.75,15.42,10.65,15.42z"/>
	<path class="st9" d="M3.4,12V8.36c0-0.66-0.54-1.21-1.21-1.21S0.99,7.69,0.99,8.36V12C1.01,12,1.02,12,1.04,12H3.4z"/>
	<path class="st9" d="M7.34,12h2.45c0.2,0,0.39-0.06,0.55-0.16V7.49c0-0.38-0.15-0.72-0.38-0.99C9.89,6.49,9.84,6.49,9.78,6.49H7.74
		c-0.24,0.27-0.4,0.62-0.4,1.01V12z"/>
	<rect x="0.99" y="12.32" class="st9" width="2.42" height="0.36"/>
	<rect x="7.34" y="12.32" class="st9" width="2.99" height="0.36"/>
	<rect x="0.99" y="13" class="st9" width="2.42" height="0.36"/>
	<rect x="7.34" y="13" class="st9" width="2.99" height="0.36"/>
	<rect x="0.99" y="13.69" class="st9" width="2.42" height="0.36"/>
	<rect x="7.34" y="13.69" class="st9" width="2.99" height="0.36"/>
	<rect x="0.99" y="14.37" class="st9" width="2.42" height="0.36"/>
	<rect x="7.34" y="14.37" class="st9" width="2.99" height="0.36"/>
	<polygon class="st9" points="3.4,15.05 0.99,15.05 0.99,15.41 0.99,15.42 3.4,15.42 3.4,15.41 	"/>
	<rect x="7.34" y="15.05" class="st9" width="2.99" height="0.36"/>
	<rect x="4.87" class="st10" width="0.3" height="5.97"/>
	<rect x="5.17" class="st11" width="0.25" height="5.97"/>
	<path class="st11" d="M4.87,0C4.68,0,4.52,0.15,4.52,0.34v5.29c0,0.19,0.15,0.34,0.34,0.34h0L4.87,0L4.87,0z"/>
	<path class="st12" d="M5.96,0v5.97c0.19,0,0.34-0.15,0.34-0.34V0.34C6.31,0.15,6.15,0,5.96,0z"/>
	<rect x="5.41" class="st13" width="0.24" height="5.97"/>
	<polygon class="st11" points="5.96,0 5.65,0 5.65,5.97 5.96,5.97 5.96,5.97 5.96,0 	"/>
	<rect x="5.53" y="5.15" class="st13" width="0.33" height="1.34"/>
	<rect x="4.96" y="5.15" class="st11" width="0.34" height="1.34"/>
	<path class="st12" d="M6.6,5.15H6.4v1.34h0.2c0.19,0,0.34-0.15,0.34-0.34V5.49C6.95,5.3,6.79,5.15,6.6,5.15z"/>
	<path class="st11" d="M4.11,5.49v0.66c0,0.18,0.14,0.32,0.31,0.33V5.15C4.25,5.17,4.11,5.31,4.11,5.49z"/>
	<path class="st10" d="M4.45,5.15c-0.01,0-0.02,0.01-0.04,0.01v1.33c0.01,0,0.02,0.01,0.04,0.01h0.51V5.15H4.45z"/>
	<rect x="5.86" y="5.15" class="st11" width="0.54" height="1.34"/>
	<rect x="5.3" y="5.15" class="st11" width="0.23" height="1.34"/>
	<path d="M6.72,40.74H4.07c-0.19,0-0.34-0.15-0.34-0.34V17.56c0-0.19,0.15-0.34,0.34-0.34h2.65c0.19,0,0.34,0.15,0.34,0.34v22.83
		C7.06,40.58,6.91,40.74,6.72,40.74z"/>
	<path class="st14" d="M5.88,19.14H5.05c-0.09,0-0.17-0.08-0.17-0.17v-0.83c0-0.09,0.08-0.17,0.17-0.17h0.83
		c0.09,0,0.17,0.08,0.17,0.17v0.83C6.05,19.07,5.97,19.14,5.88,19.14z"/>
	<path class="st15" d="M5.88,21.05H5.05c-0.09,0-0.17-0.08-0.17-0.17v-0.83c0-0.09,0.08-0.17,0.17-0.17h0.83
		c0.09,0,0.17,0.08,0.17,0.17v0.83C6.05,20.98,5.97,21.05,5.88,21.05z"/>
	<path class="st15" d="M5.88,22.96H5.05c-0.09,0-0.17-0.08-0.17-0.17v-0.83c0-0.09,0.08-0.17,0.17-0.17h0.83
		c0.09,0,0.17,0.08,0.17,0.17v0.83C6.05,22.89,5.97,22.96,5.88,22.96z"/>
	<path class="st16" d="M5.88,24.87H5.05c-0.09,0-0.17-0.08-0.17-0.17v-0.83c0-0.09,0.08-0.17,0.17-0.17h0.83
		c0.09,0,0.17,0.08,0.17,0.17v0.83C6.05,24.79,5.97,24.87,5.88,24.87z"/>
	<path class="st17" d="M5.88,26.78H5.05c-0.09,0-0.17-0.08-0.17-0.17v-0.83c0-0.09,0.08-0.17,0.17-0.17h0.83
		c0.09,0,0.17,0.08,0.17,0.17v0.83C6.05,26.7,5.97,26.78,5.88,26.78z"/>
	<path class="st18" d="M5.88,28.69H5.05c-0.09,0-0.17-0.08-0.17-0.17v-0.83c0-0.09,0.08-0.17,0.17-0.17h0.83
		c0.09,0,0.17,0.08,0.17,0.17v0.83C6.05,28.61,5.97,28.69,5.88,28.69z"/>
	<path class="st18" d="M5.88,30.6H5.05c-0.09,0-0.17-0.08-0.17-0.17V29.6c0-0.09,0.08-0.17,0.17-0.17h0.83
		c0.09,0,0.17,0.08,0.17,0.17v0.83C6.05,30.52,5.97,30.6,5.88,30.6z"/>
	<path class="st18" d="M5.88,32.51H5.05c-0.09,0-0.17-0.08-0.17-0.17v-0.83c0-0.09,0.08-0.17,0.17-0.17h0.83
		c0.09,0,0.17,0.08,0.17,0.17v0.83C6.05,32.43,5.97,32.51,5.88,32.51z"/>
	<g>
		<path d="M8.32,18.64H7.34c-0.05,0-0.09-0.04-0.09-0.09c0-0.05,0.04-0.09,0.09-0.09h0.98c0.05,0,0.09,0.04,0.09,0.09
			C8.41,18.6,8.37,18.64,8.32,18.64z"/>
	</g>
	<g>
		<path d="M8.32,20.55H7.34c-0.05,0-0.09-0.04-0.09-0.09s0.04-0.09,0.09-0.09h0.98c0.05,0,0.09,0.04,0.09,0.09
			S8.37,20.55,8.32,20.55z"/>
	</g>
	<g>
		<path d="M8.32,22.46H7.34c-0.05,0-0.09-0.04-0.09-0.09s0.04-0.09,0.09-0.09h0.98c0.05,0,0.09,0.04,0.09,0.09
			S8.37,22.46,8.32,22.46z"/>
	</g>
	<g>
		<path d="M8.32,24.37H7.34c-0.05,0-0.09-0.04-0.09-0.09s0.04-0.09,0.09-0.09h0.98c0.05,0,0.09,0.04,0.09,0.09
			S8.37,24.37,8.32,24.37z"/>
	</g>
	<g>
		<path d="M8.32,26.28H7.34c-0.05,0-0.09-0.04-0.09-0.09s0.04-0.09,0.09-0.09h0.98c0.05,0,0.09,0.04,0.09,0.09
			S8.37,26.28,8.32,26.28z"/>
	</g>
	<g>
		<path d="M8.32,28.19H7.34c-0.05,0-0.09-0.04-0.09-0.09s0.04-0.09,0.09-0.09h0.98c0.05,0,0.09,0.04,0.09,0.09
			S8.37,28.19,8.32,28.19z"/>
	</g>
	<g>
		<path d="M8.32,30.1H7.34c-0.05,0-0.09-0.04-0.09-0.09s0.04-0.09,0.09-0.09h0.98c0.05,0,0.09,0.04,0.09,0.09S8.37,30.1,8.32,30.1z"
			/>
	</g>
	<g>
		<path d="M8.32,32.01H7.34c-0.05,0-0.09-0.04-0.09-0.09s0.04-0.09,0.09-0.09h0.98c0.05,0,0.09,0.04,0.09,0.09
			S8.37,32.01,8.32,32.01z"/>
	</g>
	<circle cx="5.36" cy="42.45" r="1.11"/>
	<circle class="st18" cx="5.38" cy="42.42" r="0.75"/>
	<path class="st19" d="M6.73,54.35H4.24c-0.38,0-0.68-0.31-0.68-0.68v-9.12c0-0.38,0.31-0.68,0.68-0.68h2.49
		c0.38,0,0.68,0.31,0.68,0.68v9.12C7.41,54.04,7.11,54.35,6.73,54.35z"/>
	<g>
		<rect x="2.47" y="53.4" class="st20" width="5.64" height="37.95"/>
		<path class="st21" d="M7.5,54.35c0-0.06-0.02-0.11-0.07-0.15c-0.1-0.09-0.32-0.14-0.62-0.16c0.31-0.02,0.52-0.07,0.62-0.16
			c0.05-0.04,0.07-0.1,0.07-0.15c0-0.06-0.02-0.11-0.07-0.15c-0.23-0.22-1.07-0.19-2.32-0.12c-0.7,0.04-1.77,0.09-1.85-0.04H3.09
			c0,0.05,0.02,0.09,0.05,0.12c0.18,0.17,0.87,0.14,1.97,0.08c0.89-0.05,2-0.11,2.2,0.08c0.01,0.01,0.02,0.02,0.02,0.03
			c0,0.01,0,0.02-0.02,0.03c-0.2,0.19-1.3,0.13-2.2,0.08c-1.11-0.06-1.79-0.09-1.97,0.08c-0.04,0.03-0.05,0.08-0.05,0.12
			s0.02,0.09,0.05,0.12c0.18,0.17,0.87,0.14,1.97,0.08c0.89-0.05,2-0.11,2.2,0.08c0.01,0.01,0.02,0.02,0.02,0.03s0,0.02-0.02,0.03
			c-0.2,0.19-1.3,0.13-2.2,0.08c-1.11-0.06-1.79-0.09-1.97,0.08c-0.04,0.03-0.05,0.08-0.05,0.12c0,0.05,0.02,0.09,0.05,0.12
			c0.18,0.17,0.87,0.14,1.97,0.08c0.89-0.05,2-0.11,2.2,0.08c0.01,0.01,0.02,0.02,0.02,0.03s0,0.02-0.02,0.03
			c-0.2,0.18-1.3,0.13-2.2,0.08C4.01,55.03,3.32,55,3.14,55.17c-0.04,0.03-0.05,0.08-0.05,0.12c0,0.05,0.02,0.09,0.05,0.12
			c0.18,0.17,0.87,0.14,1.97,0.08c0.89-0.05,2-0.11,2.2,0.08c0.01,0.01,0.02,0.02,0.02,0.03s0,0.02-0.02,0.03
			c-0.2,0.18-1.3,0.13-2.2,0.08c-1.11-0.06-1.79-0.09-1.97,0.08c-0.04,0.03-0.05,0.08-0.05,0.12s0.02,0.09,0.05,0.12
			c0.18,0.17,0.87,0.14,1.97,0.08c0.89-0.05,2-0.11,2.2,0.08c0.01,0.01,0.02,0.02,0.02,0.03c0,0.01,0,0.02-0.02,0.03
			c-0.2,0.18-1.3,0.13-2.2,0.08c-1.11-0.06-1.79-0.09-1.97,0.08c-0.04,0.03-0.05,0.08-0.05,0.12c0,0.05,0.02,0.09,0.05,0.12
			c0.18,0.17,0.87,0.14,1.97,0.08c0.89-0.05,2-0.11,2.2,0.08c0.01,0.01,0.02,0.02,0.02,0.03c0,0.01,0,0.02-0.02,0.03
			c-0.2,0.19-1.3,0.13-2.2,0.08c-1.11-0.06-1.79-0.09-1.97,0.08c-0.04,0.03-0.05,0.08-0.05,0.12s0.02,0.09,0.05,0.12
			c0.18,0.17,0.87,0.14,1.97,0.08c0.89-0.05,2-0.11,2.2,0.08c0.01,0.01,0.02,0.02,0.02,0.03s0,0.02-0.02,0.03
			c-0.2,0.19-1.3,0.13-2.2,0.08c-1.11-0.06-1.79-0.09-1.97,0.08c-0.04,0.03-0.05,0.08-0.05,0.12c0,0.05,0.02,0.09,0.05,0.12
			c0.18,0.17,0.87,0.14,1.97,0.08c0.89-0.05,2-0.11,2.2,0.08c0.01,0.01,0.02,0.02,0.02,0.03c0,0.01,0,0.02-0.02,0.03
			c-0.2,0.19-1.3,0.13-2.2,0.08c-1.11-0.06-1.79-0.09-1.97,0.08c-0.04,0.03-0.05,0.08-0.05,0.12s0.02,0.09,0.05,0.12
			c0.18,0.17,0.87,0.14,1.97,0.08c0.89-0.05,2-0.11,2.2,0.08c0.01,0.01,0.02,0.02,0.02,0.03c0,0.01,0,0.02-0.02,0.03
			c-0.2,0.19-1.31,0.13-2.2,0.08c-1.11-0.06-1.79-0.09-1.97,0.08C3.11,59,3.09,59.04,3.09,59.09s0.02,0.09,0.05,0.12
			c0.18,0.17,0.87,0.14,1.97,0.08c0.89-0.05,2-0.11,2.2,0.08c0.01,0.01,0.02,0.02,0.02,0.03c0,0.01,0,0.02-0.02,0.03
			c-0.2,0.18-1.3,0.13-2.2,0.08c-1.11-0.06-1.79-0.09-1.97,0.08c-0.04,0.03-0.05,0.08-0.05,0.12c0,0.05,0.02,0.09,0.05,0.12
			c0.18,0.17,0.87,0.14,1.97,0.08c0.89-0.05,2-0.11,2.2,0.08c0.01,0.01,0.02,0.02,0.02,0.03s0,0.02-0.02,0.03
			c-0.2,0.18-1.3,0.13-2.2,0.08c-1.11-0.06-1.79-0.09-1.97,0.08c-0.04,0.03-0.05,0.08-0.05,0.12s0.02,0.09,0.05,0.12
			c0.18,0.17,0.87,0.14,1.97,0.08c0.89-0.05,2-0.11,2.2,0.08c0.01,0.01,0.02,0.02,0.02,0.03c0,0.01,0,0.02-0.02,0.03
			c-0.2,0.18-1.3,0.13-2.2,0.08c-1.11-0.06-1.79-0.09-1.97,0.08c-0.04,0.03-0.05,0.08-0.05,0.12s0.02,0.09,0.05,0.12
			c0.18,0.17,0.87,0.14,1.97,0.08c0.89-0.05,2-0.11,2.2,0.08c0.01,0.01,0.02,0.02,0.02,0.03c0,0.01,0,0.02-0.02,0.03
			c-0.2,0.19-1.3,0.13-2.2,0.08c-1.11-0.06-1.79-0.09-1.97,0.08c-0.04,0.03-0.05,0.08-0.05,0.12s0.02,0.09,0.05,0.12
			c0.18,0.17,0.87,0.14,1.97,0.08c0.89-0.05,2-0.11,2.2,0.08c0.01,0.01,0.02,0.02,0.02,0.03s0,0.02-0.02,0.03
			c-0.2,0.19-1.3,0.13-2.2,0.08c-1.11-0.06-1.79-0.09-1.97,0.08c-0.04,0.03-0.05,0.08-0.05,0.12c0,0.05,0.02,0.09,0.05,0.12
			c0.18,0.17,0.87,0.14,1.97,0.08c0.89-0.05,2-0.11,2.2,0.08c0.01,0.01,0.02,0.02,0.02,0.03c0,0.01,0,0.02-0.02,0.03
			c-0.2,0.19-1.3,0.13-2.2,0.08c-1.11-0.06-1.79-0.09-1.97,0.08c-0.04,0.03-0.05,0.08-0.05,0.12s0.02,0.09,0.05,0.12
			c0.18,0.17,0.87,0.14,1.97,0.08c0.89-0.05,2-0.11,2.2,0.08c0.01,0.01,0.02,0.02,0.02,0.03c0,0.01,0,0.02-0.02,0.03
			c-0.2,0.18-1.3,0.13-2.2,0.08c-1.11-0.06-1.79-0.09-1.97,0.08c-0.04,0.03-0.05,0.08-0.05,0.12s0.02,0.09,0.05,0.12
			c0.18,0.17,0.87,0.14,1.97,0.08c0.89-0.05,2-0.11,2.2,0.08c0.01,0.01,0.02,0.02,0.02,0.03c0,0.01,0,0.02-0.02,0.03
			c-0.2,0.18-1.3,0.13-2.2,0.08c-1.11-0.06-1.79-0.09-1.97,0.08c-0.04,0.03-0.05,0.08-0.05,0.12c0,0.05,0.02,0.09,0.05,0.12
			c0.18,0.17,0.87,0.14,1.97,0.08c0.89-0.05,2-0.11,2.2,0.08c0.01,0.01,0.02,0.02,0.02,0.03c0,0.01,0,0.02-0.02,0.03
			c-0.2,0.18-1.3,0.13-2.2,0.08c-1.11-0.06-1.79-0.09-1.97,0.08c-0.04,0.03-0.05,0.08-0.05,0.12c0,0.05,0.02,0.09,0.05,0.12
			c0.18,0.17,0.87,0.14,1.97,0.08c0.89-0.05,2-0.11,2.2,0.08c0.01,0.01,0.02,0.02,0.02,0.03s0,0.02-0.02,0.03
			c-0.2,0.19-1.3,0.13-2.2,0.08c-1.11-0.06-1.79-0.09-1.97,0.08c-0.04,0.03-0.05,0.08-0.05,0.12c0,0.05,0.02,0.09,0.05,0.12
			c0.18,0.17,0.87,0.14,1.97,0.08c0.89-0.05,2-0.11,2.2,0.08c0.01,0.01,0.02,0.02,0.02,0.03s0,0.02-0.02,0.03
			c-0.2,0.19-1.3,0.13-2.2,0.08c-1.11-0.06-1.79-0.09-1.97,0.08C3.11,65.96,3.09,66,3.09,66.05c0,0.05,0.02,0.09,0.05,0.12
			c0.18,0.17,0.87,0.14,1.97,0.08c0.89-0.05,2-0.11,2.2,0.08c0.01,0.01,0.02,0.02,0.02,0.03c0,0.01,0,0.02-0.02,0.03
			c-0.2,0.19-1.3,0.13-2.2,0.08c-1.11-0.06-1.79-0.09-1.97,0.08c-0.04,0.03-0.05,0.08-0.05,0.12c0,0.05,0.02,0.09,0.05,0.12
			c0.18,0.17,0.87,0.14,1.97,0.08c0.89-0.05,2-0.11,2.2,0.08c0.01,0.01,0.02,0.02,0.02,0.03s0,0.02-0.02,0.03
			c-0.2,0.19-1.3,0.13-2.2,0.08c-1.11-0.06-1.79-0.09-1.97,0.08c-0.04,0.03-0.05,0.08-0.05,0.12c0,0.05,0.02,0.09,0.05,0.12
			c0.18,0.17,0.87,0.14,1.97,0.08c0.89-0.05,2-0.11,2.2,0.08c0.01,0.01,0.02,0.02,0.02,0.03c0,0.01,0,0.02-0.02,0.03
			c-0.2,0.18-1.3,0.13-2.2,0.08c-1.11-0.06-1.79-0.09-1.97,0.08c-0.04,0.03-0.05,0.08-0.05,0.12c0,0.05,0.02,0.09,0.05,0.12
			c0.18,0.17,0.87,0.14,1.97,0.08c0.89-0.05,2-0.11,2.2,0.08c0.01,0.01,0.02,0.02,0.02,0.03s0,0.02-0.02,0.03
			c-0.2,0.18-1.3,0.13-2.2,0.08c-1.11-0.06-1.79-0.09-1.97,0.08c-0.04,0.03-0.05,0.08-0.05,0.12c0,0.05,0.02,0.09,0.05,0.12
			c0.18,0.17,0.87,0.14,1.97,0.08c0.89-0.05,2-0.11,2.2,0.08c0.01,0.01,0.02,0.02,0.02,0.03s0,0.02-0.02,0.03
			c-0.2,0.18-1.3,0.13-2.2,0.08c-1.11-0.06-1.79-0.09-1.97,0.08c-0.04,0.03-0.05,0.08-0.05,0.12c0,0.05,0.02,0.09,0.05,0.12
			c0.18,0.17,0.87,0.14,1.97,0.08c0.89-0.05,2-0.11,2.2,0.08c0.01,0.01,0.02,0.02,0.02,0.03c0,0.01,0,0.02-0.02,0.03
			c-0.2,0.19-1.3,0.13-2.2,0.08c-1.11-0.06-1.79-0.09-1.97,0.08c-0.04,0.03-0.05,0.08-0.05,0.12c0,0.05,0.02,0.09,0.05,0.12
			c0.18,0.17,0.87,0.14,1.97,0.08c0.89-0.05,2-0.11,2.2,0.08c0.01,0.01,0.02,0.02,0.02,0.03s0,0.02-0.02,0.03
			c-0.2,0.19-1.3,0.13-2.2,0.08c-1.11-0.06-1.79-0.09-1.97,0.08c-0.04,0.03-0.05,0.08-0.05,0.12s0.02,0.09,0.05,0.12
			c0.18,0.17,0.87,0.14,1.97,0.08c0.89-0.05,2-0.11,2.2,0.08c0.01,0.01,0.02,0.02,0.02,0.03s0,0.02-0.02,0.03
			c-0.2,0.19-1.3,0.13-2.2,0.08c-1.11-0.06-1.79-0.09-1.97,0.08c-0.04,0.03-0.05,0.08-0.05,0.12c0,0.05,0.02,0.09,0.05,0.12
			c0.18,0.17,0.87,0.14,1.97,0.08c0.89-0.05,2-0.11,2.2,0.08c0.01,0.01,0.02,0.02,0.02,0.03c0,0.01,0,0.02-0.02,0.03
			c-0.2,0.19-1.31,0.13-2.2,0.08c-1.11-0.06-1.79-0.09-1.97,0.08c-0.04,0.03-0.05,0.08-0.05,0.12c0,0.05,0.02,0.09,0.05,0.12
			c0.18,0.17,0.87,0.14,1.97,0.08c0.89-0.05,2-0.11,2.2,0.08c0.01,0.01,0.02,0.02,0.02,0.03s0,0.02-0.02,0.03
			c-0.2,0.18-1.3,0.13-2.2,0.08c-1.11-0.06-1.79-0.09-1.97,0.08c-0.04,0.03-0.05,0.08-0.05,0.12s0.02,0.09,0.05,0.12
			c0.18,0.17,0.87,0.14,1.97,0.08c0.89-0.05,2-0.11,2.2,0.08c0.01,0.01,0.02,0.02,0.02,0.03s0,0.02-0.02,0.03
			c-0.2,0.18-1.3,0.13-2.2,0.08c-1.11-0.06-1.79-0.09-1.97,0.08C3.11,72.91,3.09,72.96,3.09,73c0,0.05,0.02,0.09,0.05,0.12
			c0.18,0.17,0.87,0.14,1.97,0.08c0.89-0.05,2-0.11,2.2,0.08c0.01,0.01,0.02,0.02,0.02,0.03s0,0.02-0.02,0.03
			c-0.2,0.18-1.3,0.13-2.2,0.08c-1.11-0.06-1.79-0.09-1.98,0.09c-0.04,0.03-0.05,0.08-0.05,0.12s0.02,0.09,0.05,0.12
			c0.18,0.17,0.87,0.14,1.97,0.08c0.89-0.05,2-0.11,2.2,0.08c0.01,0.01,0.02,0.02,0.02,0.03s0,0.02-0.02,0.03
			c-0.2,0.19-1.3,0.13-2.2,0.08C4.01,74,3.32,73.97,3.14,74.15c-0.04,0.03-0.05,0.08-0.05,0.12c0,0.05,0.02,0.09,0.05,0.12
			c0.18,0.17,0.87,0.14,1.97,0.08c0.89-0.05,2-0.11,2.2,0.08c0.01,0.01,0.02,0.02,0.02,0.03s0,0.02-0.02,0.03
			c-0.2,0.19-1.3,0.13-2.2,0.08c-1.11-0.06-1.79-0.09-1.97,0.08c-0.04,0.03-0.05,0.08-0.05,0.12c0,0.05,0.02,0.09,0.05,0.12
			c0.18,0.17,0.87,0.14,1.97,0.08c0.89-0.05,2-0.11,2.2,0.08c0.01,0.01,0.02,0.02,0.02,0.03s0,0.02-0.02,0.03
			c-0.2,0.19-1.3,0.13-2.2,0.08c-1.11-0.06-1.79-0.09-1.97,0.08c-0.04,0.03-0.05,0.08-0.05,0.12s0.02,0.09,0.05,0.12
			c0.18,0.17,0.87,0.14,1.97,0.08c0.89-0.05,2-0.11,2.2,0.08c0.01,0.01,0.02,0.02,0.02,0.03s0,0.02-0.02,0.03
			c-0.2,0.18-1.3,0.13-2.2,0.08c-1.11-0.06-1.79-0.09-1.97,0.08c-0.04,0.03-0.05,0.08-0.05,0.12c0,0.05,0.02,0.09,0.05,0.12
			c0.18,0.17,0.87,0.14,1.97,0.08c0.89-0.05,2-0.11,2.2,0.08c0.01,0.01,0.02,0.02,0.02,0.03c0,0.01,0,0.02-0.02,0.03
			c-0.2,0.18-1.3,0.13-2.2,0.08c-1.11-0.06-1.79-0.09-1.97,0.08c-0.04,0.03-0.05,0.08-0.05,0.12c0,0.05,0.02,0.09,0.05,0.12
			c0.18,0.17,0.87,0.14,1.97,0.08c0.89-0.05,2-0.11,2.2,0.08c0.01,0.01,0.02,0.02,0.02,0.03s0,0.02-0.02,0.03
			c-0.2,0.18-1.3,0.13-2.2,0.08c-1.11-0.06-1.79-0.09-1.97,0.08c-0.04,0.03-0.05,0.08-0.05,0.12s0.02,0.09,0.05,0.12
			c0.18,0.17,0.87,0.14,1.97,0.08c0.89-0.05,2-0.11,2.2,0.08c0.01,0.01,0.02,0.02,0.02,0.03s0,0.02-0.02,0.03
			c-0.2,0.19-1.3,0.13-2.2,0.08c-1.11-0.06-1.79-0.09-1.97,0.08c-0.04,0.03-0.05,0.08-0.05,0.12c0,0.05,0.02,0.09,0.05,0.12
			c0.18,0.17,0.87,0.14,1.97,0.08c0.89-0.05,2-0.11,2.2,0.08c0.01,0.01,0.02,0.02,0.02,0.03c0,0.01,0,0.02-0.02,0.03
			c-0.2,0.19-1.3,0.13-2.2,0.08c-1.11-0.06-1.79-0.09-1.97,0.08c-0.04,0.03-0.05,0.08-0.05,0.12c0,0.05,0.02,0.09,0.05,0.12
			c0.18,0.17,0.87,0.14,1.97,0.08c0.89-0.05,2-0.11,2.2,0.08c0.01,0.01,0.02,0.02,0.02,0.03s0,0.02-0.02,0.03
			c-0.2,0.19-1.3,0.13-2.2,0.08c-1.11-0.06-1.79-0.09-1.97,0.08c-0.04,0.03-0.05,0.08-0.05,0.12c0,0.05,0.02,0.09,0.05,0.12
			c0.18,0.17,0.87,0.14,1.97,0.08c0.89-0.05,2-0.11,2.2,0.08c0.01,0.01,0.02,0.02,0.02,0.03s0,0.02-0.02,0.03
			c-0.2,0.19-1.3,0.13-2.2,0.08c-1.11-0.06-1.79-0.09-1.97,0.08c-0.04,0.03-0.05,0.08-0.05,0.12c0,0.05,0.02,0.09,0.05,0.12
			c0.18,0.17,0.87,0.14,1.97,0.08c0.89-0.05,2-0.11,2.2,0.08c0.01,0.01,0.02,0.02,0.02,0.03s0,0.02-0.02,0.03
			c-0.2,0.18-1.3,0.13-2.2,0.08c-1.11-0.06-1.79-0.09-1.97,0.08c-0.04,0.03-0.05,0.08-0.05,0.12c0,0.05,0.02,0.09,0.05,0.12
			c0.18,0.17,0.87,0.14,1.97,0.08c0.89-0.05,2-0.11,2.2,0.08c0.01,0.01,0.02,0.02,0.02,0.03s0,0.02-0.02,0.03
			c-0.2,0.18-1.3,0.13-2.2,0.08c-1.11-0.06-1.79-0.09-1.97,0.08c-0.04,0.03-0.05,0.08-0.05,0.12c0,0.05,0.02,0.09,0.05,0.12
			c0.18,0.17,0.87,0.14,1.97,0.08c0.89-0.05,2-0.11,2.2,0.08c0.01,0.01,0.02,0.02,0.02,0.03c0,0.01,0,0.02-0.02,0.03
			c-0.2,0.18-1.3,0.13-2.2,0.08c-1.11-0.06-1.79-0.09-1.97,0.08c-0.04,0.03-0.05,0.08-0.05,0.12c0,0.05,0.02,0.09,0.05,0.12
			c0.18,0.17,0.87,0.14,1.97,0.08c0.89-0.05,2-0.11,2.2,0.08c0.01,0.01,0.02,0.02,0.02,0.03s0,0.02-0.02,0.03
			c-0.2,0.19-1.3,0.13-2.2,0.08c-1.11-0.06-1.79-0.09-1.97,0.08c-0.04,0.03-0.05,0.08-0.05,0.12s0.02,0.09,0.05,0.12
			c0.18,0.17,0.87,0.14,1.97,0.08c0.89-0.05,2-0.11,2.2,0.08c0.01,0.01,0.02,0.02,0.02,0.03s0,0.02-0.02,0.03
			c-0.2,0.19-1.3,0.13-2.2,0.08C4.01,82.86,3.32,82.83,3.14,83c-0.04,0.03-0.05,0.08-0.05,0.12c0,0.05,0.02,0.09,0.05,0.12
			c0.18,0.17,0.87,0.14,1.97,0.08c0.89-0.05,2-0.11,2.2,0.08c0.01,0.01,0.02,0.02,0.02,0.03c0,0.01,0,0.02-0.02,0.03
			c-0.2,0.19-1.3,0.13-2.2,0.08c-1.11-0.06-1.79-0.09-1.97,0.08c-0.04,0.03-0.05,0.08-0.05,0.12c0,0.05,0.02,0.09,0.05,0.12
			c0.18,0.17,0.87,0.14,1.97,0.08c0.89-0.05,2-0.11,2.2,0.08c0.01,0.01,0.02,0.02,0.02,0.03s0,0.02-0.02,0.03
			c-0.2,0.18-1.3,0.13-2.2,0.08c-1.11-0.06-1.79-0.09-1.97,0.08c-0.04,0.03-0.05,0.08-0.05,0.12s0.02,0.09,0.05,0.12
			c0.18,0.17,0.87,0.14,1.97,0.08c0.89-0.05,2-0.11,2.2,0.08c0.01,0.01,0.02,0.02,0.02,0.03s0,0.02-0.02,0.03
			c-0.2,0.18-1.3,0.13-2.2,0.08c-1.11-0.06-1.79-0.09-1.97,0.08c-0.04,0.03-0.05,0.08-0.05,0.12c0,0.05,0.02,0.09,0.05,0.12
			c0.18,0.17,0.87,0.14,1.97,0.08c0.89-0.05,2-0.11,2.2,0.08c0.01,0.01,0.02,0.02,0.02,0.03s0,0.02-0.02,0.03
			c-0.2,0.18-1.3,0.13-2.2,0.08c-1.11-0.06-1.79-0.09-1.97,0.08c-0.04,0.03-0.05,0.08-0.05,0.12c0,0.05,0.02,0.09,0.05,0.12
			c0.18,0.17,0.87,0.14,1.97,0.08c0.89-0.05,2-0.11,2.2,0.08c0.01,0.01,0.02,0.02,0.02,0.03s0,0.02-0.02,0.03
			c-0.2,0.19-1.3,0.13-2.2,0.08c-1.11-0.06-1.79-0.09-1.97,0.08c-0.04,0.03-0.05,0.08-0.05,0.12c0,0.05,0.02,0.09,0.05,0.12
			c0.18,0.17,0.87,0.14,1.97,0.08c0.89-0.05,2-0.11,2.2,0.08c0.01,0.01,0.02,0.02,0.02,0.03s0,0.02-0.02,0.03
			c-0.2,0.19-1.3,0.13-2.2,0.08c-1.11-0.06-1.79-0.09-1.97,0.08c-0.04,0.03-0.05,0.08-0.05,0.12c0,0.05,0.02,0.09,0.05,0.12
			c0.18,0.17,0.87,0.14,1.97,0.08c0.89-0.05,2-0.11,2.2,0.08c0.01,0.01,0.02,0.02,0.02,0.03s0,0.02-0.02,0.03
			c-0.2,0.19-1.3,0.13-2.2,0.08c-1.11-0.06-1.79-0.09-1.97,0.08c-0.04,0.03-0.05,0.08-0.05,0.12s0.02,0.09,0.05,0.12
			c0.18,0.17,0.87,0.14,1.97,0.08c0.89-0.05,2-0.11,2.2,0.08c0.01,0.01,0.02,0.02,0.02,0.03s0,0.02-0.02,0.03
			c-0.2,0.19-1.3,0.13-2.2,0.08c-1.11-0.06-1.79-0.09-1.97,0.08c-0.04,0.03-0.05,0.08-0.05,0.12c0,0.05,0.02,0.09,0.05,0.12
			c0.18,0.17,0.87,0.14,1.97,0.08c0.89-0.05,2-0.11,2.2,0.08c0.01,0.01,0.02,0.02,0.02,0.03c0,0.01,0,0.02-0.02,0.03
			c-0.2,0.18-1.3,0.13-2.2,0.08c-1.11-0.06-1.79-0.09-1.97,0.08c-0.04,0.03-0.05,0.08-0.05,0.12c0,0.05,0.02,0.09,0.05,0.12
			c0.18,0.17,0.87,0.14,1.97,0.08c0.89-0.05,2-0.11,2.2,0.08c0.01,0.01,0.02,0.02,0.02,0.03s0,0.02-0.02,0.03
			c-0.2,0.18-1.3,0.13-2.2,0.08c-1.11-0.06-1.79-0.09-1.97,0.08c-0.04,0.03-0.05,0.08-0.05,0.12s0.02,0.09,0.05,0.12
			c0.18,0.17,0.87,0.14,1.97,0.08c0.89-0.05,2-0.11,2.2,0.08c0.01,0.01,0.02,0.02,0.02,0.03s0,0.02-0.02,0.03
			c-0.2,0.18-1.3,0.13-2.2,0.08c-1.11-0.06-1.79-0.09-1.97,0.08c-0.04,0.03-0.05,0.08-0.05,0.12c0,0.05,0.02,0.09,0.05,0.12
			c0.18,0.17,0.87,0.14,1.97,0.08c0.89-0.05,2-0.11,2.2,0.08c0.01,0.01,0.02,0.02,0.02,0.03c0,0.01,0,0.02-0.02,0.03
			c-0.2,0.19-1.3,0.13-2.2,0.08c-1.11-0.06-1.79-0.09-1.97,0.08c-0.04,0.03-0.05,0.08-0.05,0.12c0,0.05,0.02,0.09,0.05,0.12
			c0.18,0.17,0.87,0.14,1.97,0.08c0.89-0.05,2-0.11,2.2,0.08c0.01,0.01,0.02,0.02,0.02,0.03s0,0.02-0.02,0.03
			c-0.2,0.19-1.3,0.13-2.2,0.08c-1.11-0.06-1.79-0.09-1.97,0.08c-0.04,0.03-0.05,0.08-0.05,0.12l0.17,0
			c0.09-0.13,1.15-0.08,1.85-0.04c0.51,0.03,0.95,0.05,1.32,0.05c0.52,0,0.87-0.04,1.01-0.17c0.05-0.04,0.07-0.1,0.07-0.16
			s-0.02-0.11-0.07-0.15c-0.1-0.09-0.32-0.14-0.62-0.16c0.31-0.02,0.52-0.07,0.62-0.16c0.05-0.04,0.07-0.1,0.07-0.16
			c0-0.06-0.02-0.11-0.07-0.15c-0.1-0.09-0.31-0.14-0.62-0.16c0.31-0.02,0.52-0.07,0.62-0.16c0.05-0.04,0.07-0.1,0.07-0.15
			c0-0.06-0.02-0.11-0.07-0.16c-0.1-0.09-0.32-0.14-0.62-0.16c0.31-0.02,0.52-0.07,0.62-0.16c0.05-0.04,0.07-0.1,0.07-0.15
			s-0.02-0.11-0.07-0.15c-0.1-0.09-0.31-0.14-0.62-0.16c0.31-0.02,0.52-0.07,0.62-0.16c0.05-0.04,0.07-0.1,0.07-0.15
			c0-0.06-0.02-0.11-0.07-0.15c-0.1-0.09-0.32-0.14-0.62-0.16c0.31-0.02,0.52-0.07,0.62-0.16c0.05-0.04,0.07-0.1,0.07-0.15
			s-0.02-0.11-0.07-0.15c-0.1-0.09-0.32-0.14-0.62-0.16c0.31-0.02,0.52-0.07,0.62-0.16c0.05-0.04,0.07-0.1,0.07-0.16
			c0-0.06-0.02-0.11-0.07-0.15c-0.1-0.09-0.32-0.14-0.62-0.16c0.31-0.02,0.52-0.07,0.62-0.16c0.05-0.04,0.07-0.1,0.07-0.15
			c0-0.06-0.02-0.11-0.07-0.15c-0.1-0.09-0.32-0.14-0.62-0.16c0.31-0.02,0.52-0.07,0.62-0.16c0.05-0.04,0.07-0.1,0.07-0.15
			s-0.02-0.11-0.07-0.15c-0.1-0.09-0.32-0.14-0.62-0.16c0.31-0.02,0.52-0.07,0.62-0.16c0.05-0.04,0.07-0.1,0.07-0.15
			c0-0.06-0.02-0.11-0.07-0.15c-0.1-0.09-0.32-0.14-0.62-0.16c0.31-0.02,0.52-0.07,0.62-0.16c0.05-0.04,0.07-0.1,0.07-0.15
			c0-0.06-0.02-0.11-0.07-0.16c-0.1-0.09-0.31-0.14-0.62-0.16c0.31-0.02,0.52-0.07,0.62-0.16c0.05-0.04,0.07-0.1,0.07-0.15
			s-0.02-0.11-0.07-0.15c-0.1-0.09-0.32-0.14-0.62-0.16c0.31-0.02,0.52-0.07,0.62-0.16c0.05-0.04,0.07-0.1,0.07-0.15
			c0-0.06-0.02-0.11-0.07-0.15c-0.1-0.09-0.32-0.14-0.62-0.16c0.31-0.02,0.52-0.07,0.62-0.16c0.05-0.04,0.07-0.1,0.07-0.15
			s-0.02-0.11-0.07-0.15c-0.1-0.09-0.32-0.14-0.62-0.16c0.31-0.02,0.52-0.07,0.62-0.16c0.05-0.04,0.07-0.1,0.07-0.16
			c0-0.06-0.02-0.11-0.07-0.15c-0.1-0.09-0.31-0.14-0.62-0.16c0.31-0.02,0.52-0.07,0.62-0.16c0.05-0.04,0.07-0.1,0.07-0.15
			c0-0.06-0.02-0.11-0.07-0.16c-0.1-0.09-0.32-0.14-0.62-0.16c0.31-0.02,0.52-0.07,0.62-0.16c0.05-0.04,0.07-0.1,0.07-0.15
			s-0.02-0.11-0.07-0.16c-0.1-0.09-0.31-0.14-0.62-0.16c0.31-0.02,0.52-0.07,0.62-0.16c0.05-0.04,0.07-0.1,0.07-0.15
			c0-0.06-0.02-0.11-0.07-0.15c-0.1-0.09-0.32-0.14-0.62-0.16c0.31-0.02,0.52-0.07,0.62-0.16c0.05-0.04,0.07-0.1,0.07-0.15
			c0-0.06-0.02-0.11-0.07-0.15c-0.1-0.09-0.32-0.14-0.62-0.16c0.31-0.02,0.52-0.07,0.62-0.16c0.05-0.04,0.07-0.1,0.07-0.16
			s-0.02-0.11-0.07-0.15c-0.1-0.09-0.32-0.14-0.62-0.16c0.31-0.02,0.52-0.07,0.62-0.16c0.05-0.04,0.07-0.1,0.07-0.16
			c0-0.06-0.02-0.11-0.07-0.15c-0.1-0.09-0.32-0.14-0.62-0.16C7.12,78.04,7.33,78,7.43,77.9c0.05-0.04,0.07-0.1,0.07-0.15
			c0-0.06-0.02-0.11-0.07-0.16c-0.1-0.09-0.32-0.14-0.62-0.16c0.31-0.02,0.52-0.07,0.62-0.16c0.05-0.04,0.07-0.1,0.07-0.15
			S7.48,77,7.43,76.96c-0.1-0.09-0.32-0.14-0.62-0.16c0.31-0.02,0.52-0.07,0.62-0.16c0.05-0.04,0.07-0.1,0.07-0.15
			c0-0.06-0.02-0.11-0.07-0.15c-0.1-0.09-0.31-0.14-0.62-0.16C7.12,76.15,7.33,76.1,7.43,76c0.05-0.04,0.07-0.1,0.07-0.15
			c0-0.06-0.02-0.11-0.07-0.16c-0.1-0.09-0.32-0.14-0.62-0.16c0.31-0.02,0.52-0.07,0.62-0.16c0.05-0.04,0.07-0.1,0.07-0.16
			c0-0.06-0.02-0.11-0.07-0.15c-0.1-0.09-0.32-0.14-0.62-0.16c0.31-0.02,0.52-0.07,0.62-0.16c0.05-0.04,0.07-0.1,0.07-0.15
			c0-0.06-0.02-0.11-0.07-0.15c-0.1-0.09-0.32-0.14-0.62-0.16c0.31-0.02,0.52-0.07,0.62-0.16c0.05-0.04,0.07-0.1,0.07-0.15
			s-0.02-0.11-0.07-0.15c-0.1-0.09-0.32-0.14-0.62-0.16c0.31-0.02,0.52-0.07,0.62-0.16c0.05-0.04,0.07-0.1,0.07-0.15
			c0-0.06-0.02-0.11-0.07-0.15c-0.1-0.09-0.32-0.14-0.62-0.16c0.31-0.02,0.52-0.07,0.62-0.16c0.05-0.04,0.07-0.1,0.07-0.15
			c0-0.06-0.02-0.11-0.07-0.16c-0.1-0.09-0.31-0.14-0.62-0.16c0.31-0.02,0.52-0.07,0.62-0.16c0.05-0.04,0.07-0.1,0.07-0.15
			s-0.02-0.11-0.07-0.15c-0.1-0.09-0.32-0.14-0.62-0.16c0.31-0.02,0.52-0.07,0.62-0.16c0.05-0.04,0.07-0.1,0.07-0.15
			c0-0.06-0.02-0.11-0.07-0.15c-0.1-0.09-0.32-0.14-0.62-0.16c0.31-0.02,0.52-0.07,0.62-0.16c0.05-0.04,0.07-0.1,0.07-0.15
			s-0.02-0.11-0.07-0.15c-0.1-0.09-0.32-0.14-0.62-0.16c0.31-0.02,0.52-0.07,0.62-0.16c0.05-0.04,0.07-0.1,0.07-0.16
			c0-0.06-0.02-0.11-0.07-0.15c-0.1-0.09-0.32-0.14-0.62-0.16c0.31-0.02,0.52-0.07,0.62-0.16c0.05-0.04,0.07-0.1,0.07-0.15
			c0-0.06-0.02-0.11-0.07-0.16c-0.1-0.09-0.32-0.14-0.62-0.16c0.31-0.02,0.52-0.07,0.62-0.16C7.48,69,7.5,68.95,7.5,68.89
			s-0.02-0.11-0.07-0.16c-0.1-0.09-0.32-0.14-0.62-0.16c0.31-0.02,0.52-0.07,0.62-0.16c0.05-0.04,0.07-0.1,0.07-0.15
			c0-0.06-0.02-0.11-0.07-0.15c-0.1-0.09-0.31-0.14-0.62-0.16c0.31-0.02,0.52-0.07,0.62-0.16c0.05-0.04,0.07-0.1,0.07-0.15
			c0-0.06-0.02-0.11-0.07-0.16c-0.1-0.09-0.32-0.14-0.62-0.16c0.31-0.02,0.52-0.07,0.62-0.16c0.05-0.04,0.07-0.1,0.07-0.16
			s-0.02-0.11-0.07-0.15c-0.1-0.09-0.32-0.14-0.62-0.16c0.31-0.02,0.52-0.07,0.62-0.16c0.05-0.04,0.07-0.1,0.07-0.16
			c0-0.06-0.02-0.11-0.07-0.15c-0.1-0.09-0.32-0.14-0.62-0.16c0.31-0.02,0.52-0.07,0.62-0.16c0.05-0.04,0.07-0.1,0.07-0.15
			c0-0.06-0.02-0.11-0.07-0.15c-0.1-0.09-0.32-0.14-0.62-0.16c0.31-0.02,0.52-0.07,0.62-0.16c0.05-0.04,0.07-0.1,0.07-0.16
			s-0.02-0.11-0.07-0.15c-0.1-0.09-0.32-0.14-0.62-0.16c0.31-0.02,0.52-0.07,0.62-0.16c0.05-0.04,0.07-0.1,0.07-0.15
			c0-0.06-0.02-0.11-0.07-0.15c-0.1-0.09-0.31-0.14-0.62-0.16c0.31-0.02,0.52-0.07,0.62-0.16c0.05-0.04,0.07-0.1,0.07-0.15
			c0-0.06-0.02-0.11-0.07-0.16c-0.1-0.09-0.32-0.14-0.62-0.16c0.31-0.02,0.52-0.07,0.62-0.16c0.05-0.04,0.07-0.1,0.07-0.15
			c0-0.06-0.02-0.11-0.07-0.16c-0.1-0.09-0.32-0.14-0.62-0.16c0.31-0.02,0.52-0.07,0.62-0.16c0.05-0.04,0.07-0.1,0.07-0.16
			c0-0.06-0.02-0.11-0.07-0.15c-0.1-0.09-0.32-0.14-0.62-0.16c0.31-0.02,0.52-0.07,0.62-0.16c0.05-0.04,0.07-0.1,0.07-0.16
			s-0.02-0.11-0.07-0.15c-0.1-0.09-0.32-0.14-0.62-0.16c0.31-0.02,0.52-0.07,0.62-0.16c0.05-0.04,0.07-0.1,0.07-0.15
			c0-0.06-0.02-0.11-0.07-0.16c-0.1-0.09-0.32-0.14-0.62-0.16c0.31-0.02,0.52-0.07,0.62-0.16c0.05-0.04,0.07-0.1,0.07-0.15
			c0-0.06-0.02-0.11-0.07-0.15c-0.1-0.09-0.32-0.14-0.62-0.16c0.31-0.02,0.52-0.07,0.62-0.16c0.05-0.04,0.07-0.1,0.07-0.15
			s-0.02-0.11-0.07-0.16c-0.1-0.09-0.31-0.14-0.62-0.16c0.31-0.02,0.52-0.07,0.62-0.16c0.05-0.04,0.07-0.1,0.07-0.15
			c0-0.06-0.02-0.11-0.07-0.16c-0.1-0.09-0.32-0.14-0.62-0.16c0.31-0.02,0.52-0.07,0.62-0.16c0.05-0.04,0.07-0.1,0.07-0.16
			c0-0.06-0.02-0.11-0.07-0.15c-0.1-0.09-0.32-0.14-0.62-0.16c0.31-0.02,0.52-0.07,0.62-0.16c0.05-0.04,0.07-0.1,0.07-0.16
			c0-0.06-0.02-0.11-0.07-0.15c-0.1-0.09-0.32-0.14-0.62-0.16c0.31-0.02,0.52-0.07,0.62-0.16c0.05-0.04,0.07-0.1,0.07-0.16
			s-0.02-0.11-0.07-0.15c-0.1-0.09-0.32-0.14-0.62-0.16c0.31-0.02,0.52-0.07,0.62-0.16c0.05-0.04,0.07-0.1,0.07-0.16
			c0-0.06-0.02-0.11-0.07-0.16c-0.1-0.09-0.32-0.14-0.62-0.16c0.31-0.02,0.52-0.07,0.62-0.16c0.05-0.04,0.07-0.1,0.07-0.15
			c0-0.06-0.02-0.11-0.07-0.15c-0.1-0.09-0.31-0.14-0.62-0.16c0.31-0.02,0.52-0.07,0.62-0.16c0.05-0.04,0.07-0.1,0.07-0.15
			s-0.02-0.11-0.07-0.16c-0.1-0.09-0.32-0.14-0.62-0.16c0.31-0.02,0.52-0.07,0.62-0.16c0.05-0.04,0.07-0.1,0.07-0.15
			s-0.02-0.11-0.07-0.16c-0.1-0.09-0.32-0.14-0.62-0.16c0.31-0.02,0.52-0.07,0.62-0.16C7.48,54.46,7.5,54.4,7.5,54.35z M5.11,54.07
			c-0.7,0.04-1.75,0.09-1.85-0.03c0.1-0.13,1.15-0.08,1.85-0.04c0.28,0.02,0.54,0.03,0.78,0.04C5.65,54.04,5.39,54.05,5.11,54.07z
			 M5.11,90.75c-0.7,0.04-1.75,0.09-1.85-0.03c0.1-0.13,1.15-0.08,1.85-0.04c0.28,0.02,0.54,0.03,0.78,0.04
			C5.65,90.72,5.39,90.73,5.11,90.75z M5.11,90.11c-0.7,0.04-1.75,0.09-1.85-0.03c0.1-0.13,1.15-0.07,1.85-0.04
			c0.28,0.02,0.54,0.03,0.78,0.04C5.65,90.09,5.39,90.1,5.11,90.11z M5.11,89.48c-0.7,0.04-1.75,0.09-1.85-0.03
			c0.1-0.13,1.15-0.07,1.85-0.04c0.28,0.02,0.54,0.03,0.78,0.04C5.65,89.45,5.39,89.47,5.11,89.48z M5.11,88.85
			c-0.7,0.04-1.75,0.09-1.85-0.03c0.1-0.13,1.15-0.07,1.85-0.04c0.28,0.02,0.54,0.03,0.78,0.04C5.65,88.82,5.39,88.83,5.11,88.85z
			 M5.11,88.22c-0.7,0.04-1.75,0.09-1.85-0.03c0.1-0.13,1.15-0.08,1.85-0.04c0.28,0.02,0.54,0.03,0.78,0.04
			C5.65,88.19,5.39,88.2,5.11,88.22z M5.11,87.59c-0.7,0.04-1.75,0.09-1.85-0.03c0.1-0.13,1.15-0.08,1.85-0.04
			c0.28,0.02,0.54,0.03,0.78,0.04C5.65,87.56,5.39,87.57,5.11,87.59z M5.11,86.95c-0.7,0.04-1.75,0.09-1.85-0.03
			c0.1-0.13,1.15-0.08,1.85-0.04c0.28,0.02,0.54,0.03,0.78,0.04C5.65,86.93,5.39,86.94,5.11,86.95z M5.11,86.32
			c-0.7,0.04-1.75,0.09-1.85-0.03c0.1-0.13,1.15-0.08,1.85-0.04c0.28,0.02,0.54,0.03,0.78,0.04C5.65,86.29,5.39,86.31,5.11,86.32z
			 M5.11,85.69c-0.7,0.04-1.75,0.09-1.85-0.03c0.1-0.13,1.15-0.07,1.85-0.04c0.28,0.02,0.54,0.03,0.78,0.04
			C5.65,85.66,5.39,85.67,5.11,85.69z M5.11,85.06c-0.7,0.04-1.75,0.09-1.85-0.03c0.1-0.13,1.15-0.07,1.85-0.04
			c0.28,0.02,0.54,0.03,0.78,0.04C5.65,85.03,5.39,85.04,5.11,85.06z M5.11,84.42c-0.7,0.04-1.75,0.09-1.85-0.03
			c0.1-0.13,1.15-0.07,1.85-0.04c0.28,0.02,0.54,0.03,0.78,0.04C5.65,84.4,5.39,84.41,5.11,84.42z M5.11,83.79
			c-0.7,0.04-1.75,0.09-1.85-0.03c0.1-0.13,1.15-0.08,1.85-0.04c0.28,0.02,0.54,0.03,0.78,0.04C5.65,83.76,5.39,83.78,5.11,83.79z
			 M5.11,83.16c-0.7,0.04-1.75,0.09-1.85-0.03c0.1-0.13,1.15-0.08,1.85-0.04c0.28,0.02,0.54,0.03,0.78,0.04
			C5.65,83.13,5.39,83.14,5.11,83.16z M5.11,82.53c-0.7,0.04-1.75,0.09-1.85-0.03c0.1-0.13,1.15-0.08,1.85-0.04
			c0.28,0.02,0.54,0.03,0.78,0.04C5.65,82.5,5.39,82.51,5.11,82.53z M5.11,81.89c-0.7,0.04-1.75,0.09-1.85-0.03
			c0.1-0.13,1.15-0.07,1.85-0.04c0.28,0.02,0.54,0.03,0.78,0.04C5.65,81.87,5.39,81.88,5.11,81.89z M5.11,81.26
			c-0.7,0.04-1.75,0.09-1.85-0.03c0.1-0.13,1.15-0.07,1.85-0.04c0.28,0.02,0.54,0.03,0.78,0.04C5.65,81.23,5.39,81.25,5.11,81.26z
			 M5.11,80.63c-0.7,0.04-1.75,0.09-1.85-0.03c0.1-0.13,1.15-0.07,1.85-0.04c0.28,0.02,0.54,0.03,0.78,0.04
			C5.65,80.6,5.39,80.61,5.11,80.63z M5.11,80c-0.7,0.04-1.75,0.09-1.85-0.03c0.1-0.13,1.15-0.08,1.85-0.04
			c0.28,0.02,0.54,0.03,0.78,0.04C5.65,79.97,5.39,79.98,5.11,80z M5.11,79.36c-0.7,0.04-1.75,0.09-1.85-0.03
			c0.1-0.13,1.15-0.08,1.85-0.04c0.28,0.02,0.54,0.03,0.78,0.04C5.65,79.34,5.39,79.35,5.11,79.36z M5.11,78.73
			c-0.7,0.04-1.75,0.09-1.85-0.03c0.1-0.13,1.15-0.08,1.85-0.04c0.28,0.02,0.54,0.03,0.78,0.04C5.65,78.7,5.39,78.72,5.11,78.73z
			 M5.11,78.1c-0.7,0.04-1.75,0.09-1.85-0.03c0.1-0.13,1.15-0.08,1.85-0.04c0.28,0.02,0.54,0.03,0.78,0.04
			C5.65,78.07,5.39,78.08,5.11,78.1z M5.11,77.47c-0.7,0.04-1.75,0.09-1.85-0.03c0.1-0.13,1.15-0.07,1.85-0.04
			c0.28,0.02,0.54,0.03,0.78,0.04C5.65,77.44,5.39,77.45,5.11,77.47z M5.11,76.83c-0.7,0.04-1.75,0.09-1.85-0.03
			c0.1-0.13,1.15-0.07,1.85-0.04c0.28,0.02,0.54,0.03,0.78,0.04C5.65,76.81,5.39,76.82,5.11,76.83z M5.11,76.2
			c-0.7,0.04-1.75,0.09-1.85-0.03c0.1-0.13,1.15-0.07,1.85-0.04c0.28,0.02,0.54,0.03,0.78,0.04C5.65,76.17,5.39,76.19,5.11,76.2z
			 M5.11,75.57c-0.7,0.04-1.75,0.09-1.85-0.03c0.1-0.13,1.15-0.08,1.85-0.04c0.28,0.02,0.54,0.03,0.78,0.04
			C5.65,75.54,5.39,75.55,5.11,75.57z M5.11,74.94c-0.7,0.04-1.75,0.09-1.85-0.03c0.1-0.13,1.15-0.08,1.85-0.04
			c0.28,0.02,0.54,0.03,0.78,0.04C5.65,74.91,5.39,74.92,5.11,74.94z M5.11,74.3c-0.7,0.04-1.75,0.09-1.85-0.03
			c0.1-0.13,1.15-0.08,1.85-0.04c0.28,0.02,0.54,0.03,0.78,0.04C5.65,74.28,5.39,74.29,5.11,74.3z M5.11,73.67
			c-0.7,0.04-1.75,0.09-1.85-0.03c0.1-0.13,1.15-0.08,1.85-0.04c0.28,0.02,0.54,0.03,0.78,0.04C5.65,73.64,5.39,73.66,5.11,73.67z
			 M5.11,73.04c-0.7,0.04-1.75,0.09-1.85-0.03c0.1-0.13,1.15-0.07,1.85-0.04c0.28,0.02,0.54,0.03,0.78,0.04
			C5.65,73.01,5.39,73.02,5.11,73.04z M5.11,72.41c-0.7,0.04-1.75,0.09-1.85-0.03c0.1-0.13,1.15-0.07,1.85-0.04
			c0.28,0.02,0.54,0.03,0.78,0.04C5.65,72.38,5.39,72.39,5.11,72.41z M5.11,71.77c-0.7,0.04-1.75,0.09-1.85-0.03
			c0.1-0.13,1.15-0.08,1.85-0.04c0.28,0.02,0.54,0.03,0.78,0.04C5.65,71.75,5.39,71.76,5.11,71.77z M5.11,71.14
			c-0.7,0.04-1.75,0.09-1.85-0.03c0.1-0.13,1.15-0.08,1.85-0.04c0.28,0.02,0.54,0.03,0.78,0.04C5.65,71.11,5.39,71.13,5.11,71.14z
			 M5.11,70.51c-0.7,0.04-1.75,0.09-1.85-0.03c0.1-0.13,1.15-0.08,1.85-0.04c0.28,0.02,0.54,0.03,0.78,0.04
			C5.65,70.48,5.39,70.49,5.11,70.51z M5.11,69.88c-0.7,0.04-1.75,0.09-1.85-0.03c0.1-0.13,1.15-0.08,1.85-0.04
			c0.28,0.02,0.54,0.03,0.78,0.04C5.65,69.85,5.39,69.86,5.11,69.88z M5.11,69.24c-0.7,0.04-1.75,0.09-1.85-0.03
			c0.1-0.13,1.15-0.07,1.85-0.04c0.28,0.02,0.54,0.03,0.78,0.04C5.65,69.22,5.39,69.23,5.11,69.24z M5.11,68.61
			c-0.7,0.04-1.75,0.09-1.85-0.03c0.1-0.13,1.15-0.07,1.85-0.04c0.28,0.02,0.54,0.03,0.78,0.04C5.65,68.58,5.39,68.6,5.11,68.61z
			 M5.11,67.98c-0.7,0.04-1.75,0.09-1.85-0.03c0.1-0.13,1.15-0.07,1.85-0.04c0.28,0.02,0.54,0.03,0.78,0.04
			C5.65,67.95,5.39,67.96,5.11,67.98z M5.11,67.35c-0.7,0.04-1.75,0.09-1.85-0.03c0.1-0.13,1.15-0.08,1.85-0.04
			c0.28,0.02,0.54,0.03,0.78,0.04C5.65,67.32,5.39,67.33,5.11,67.35z M5.11,66.72c-0.7,0.04-1.75,0.09-1.85-0.03
			c0.1-0.13,1.15-0.08,1.85-0.04c0.28,0.02,0.54,0.03,0.78,0.04C5.65,66.69,5.39,66.7,5.11,66.72z M5.11,66.08
			c-0.7,0.04-1.75,0.09-1.85-0.03c0.1-0.13,1.15-0.08,1.85-0.04c0.28,0.02,0.54,0.03,0.78,0.04C5.65,66.06,5.39,66.07,5.11,66.08z
			 M5.11,65.45c-0.7,0.04-1.75,0.09-1.85-0.03c0.1-0.13,1.15-0.08,1.85-0.04c0.28,0.02,0.54,0.03,0.78,0.04
			C5.65,65.42,5.39,65.44,5.11,65.45z M5.11,64.82c-0.7,0.04-1.75,0.09-1.85-0.03c0.1-0.13,1.15-0.07,1.85-0.04
			c0.28,0.02,0.54,0.03,0.78,0.04C5.65,64.79,5.39,64.8,5.11,64.82z M5.11,64.19c-0.7,0.04-1.75,0.09-1.85-0.03
			c0.1-0.13,1.15-0.07,1.85-0.04c0.28,0.02,0.54,0.03,0.78,0.04C5.65,64.16,5.39,64.17,5.11,64.19z M5.11,63.55
			c-0.7,0.04-1.75,0.09-1.85-0.03c0.1-0.13,1.15-0.07,1.85-0.04c0.28,0.02,0.54,0.03,0.78,0.04C5.65,63.53,5.39,63.54,5.11,63.55z
			 M5.11,62.92c-0.7,0.04-1.75,0.09-1.85-0.03c0.1-0.13,1.15-0.08,1.85-0.04c0.28,0.02,0.54,0.03,0.78,0.04
			C5.65,62.89,5.39,62.91,5.11,62.92z M5.11,62.29c-0.7,0.04-1.75,0.09-1.85-0.03c0.1-0.13,1.15-0.08,1.85-0.04
			c0.28,0.02,0.54,0.03,0.78,0.04C5.65,62.26,5.39,62.27,5.11,62.29z M5.11,61.66c-0.7,0.04-1.75,0.09-1.85-0.03
			c0.1-0.13,1.15-0.08,1.85-0.04c0.28,0.02,0.54,0.03,0.78,0.04C5.65,61.63,5.39,61.64,5.11,61.66z M5.11,61.02
			c-0.7,0.04-1.75,0.09-1.85-0.03c0.1-0.13,1.15-0.07,1.85-0.04c0.28,0.02,0.54,0.03,0.78,0.04C5.65,61,5.39,61.01,5.11,61.02z
			 M5.11,60.39c-0.7,0.04-1.75,0.09-1.85-0.03c0.1-0.13,1.15-0.07,1.85-0.04c0.28,0.02,0.54,0.03,0.78,0.04
			C5.65,60.36,5.39,60.38,5.11,60.39z M5.11,59.76c-0.7,0.04-1.75,0.09-1.85-0.03c0.1-0.13,1.15-0.07,1.85-0.04
			c0.28,0.02,0.54,0.03,0.78,0.04C5.65,59.73,5.39,59.74,5.11,59.76z M5.11,59.13c-0.7,0.04-1.75,0.09-1.85-0.03
			c0.1-0.13,1.15-0.07,1.85-0.04c0.28,0.02,0.54,0.03,0.78,0.04C5.65,59.1,5.39,59.11,5.11,59.13z M5.11,58.49
			c-0.7,0.04-1.75,0.09-1.85-0.03c0.1-0.13,1.15-0.08,1.85-0.04c0.28,0.02,0.54,0.03,0.78,0.04C5.65,58.47,5.39,58.48,5.11,58.49z
			 M5.11,57.86c-0.7,0.04-1.75,0.09-1.85-0.03c0.1-0.13,1.15-0.08,1.85-0.04c0.28,0.02,0.54,0.03,0.78,0.04
			C5.65,57.83,5.39,57.85,5.11,57.86z M5.11,57.23c-0.7,0.04-1.75,0.09-1.85-0.03c0.1-0.13,1.15-0.08,1.85-0.04
			c0.28,0.02,0.54,0.03,0.78,0.04C5.65,57.2,5.39,57.21,5.11,57.23z M5.11,56.6c-0.7,0.04-1.75,0.09-1.85-0.03
			c0.1-0.13,1.15-0.07,1.85-0.04c0.28,0.02,0.54,0.03,0.78,0.04C5.65,56.57,5.39,56.58,5.11,56.6z M5.11,55.96
			c-0.7,0.04-1.75,0.09-1.85-0.03c0.1-0.13,1.15-0.07,1.85-0.04c0.28,0.02,0.54,0.03,0.78,0.04C5.65,55.94,5.39,55.95,5.11,55.96z
			 M5.11,55.33c-0.7,0.04-1.75,0.09-1.85-0.03c0.1-0.13,1.15-0.07,1.85-0.04c0.28,0.02,0.54,0.03,0.78,0.04
			C5.65,55.3,5.39,55.32,5.11,55.33z M5.11,54.7c-0.7,0.04-1.75,0.09-1.85-0.03c0.1-0.13,1.15-0.08,1.85-0.04
			c0.28,0.02,0.54,0.03,0.78,0.04C5.65,54.67,5.39,54.68,5.11,54.7z"/>
	</g>
</g>
</svg>
