<?xml version="1.0" encoding="utf-8"?>
<!-- Generator: Adobe Illustrator 23.0.4, SVG Export Plug-In . SVG Version: 6.00 Build 0)  -->
<svg version="1.1" id="Layer_1" xmlns="http://www.w3.org/2000/svg" xmlns:xlink="http://www.w3.org/1999/xlink" x="0px" y="0px"
	 viewBox="0 0 69.33 208.16" style="enable-background:new 0 0 69.33 208.16;" xml:space="preserve">
<style type="text/css">
	.st0{fill:#E3E9F6;}
	.st1{fill:#CFDAE7;}
	.st2{fill:#A4AFC2;}
	.st3{fill:#C2CAD9;}
	.st4{fill:#262626;}
	.st5{fill:#C5C0BB;}
	.st6{fill:#24201F;}
	.st7{clip-path:url(#SVGID_2_);fill:#847F80;}
	.st8{fill:#2D2B2C;}
	.st9{fill:#484445;}
	.st10{fill:#A72832;}
	.st11{fill:#962B2D;}
	.st12{fill:#C03140;}
	.st13{fill:#BE2A39;}
	.st14{fill:#D6D6D6;}
	.st15{fill:#D8D8D7;}
	.st16{fill:#DAD9D8;}
	.st17{fill:#D2B5B2;}
	.st18{fill:#BB222D;}
	.st19{fill:#141313;}
	.st20{fill:#554B44;}
	.st21{fill:#716C68;}
	.st22{fill:#98CC76;}
	.st23{fill:#7CC05B;}
	.st24{fill:none;stroke:#58A345;stroke-width:1.2922;stroke-linecap:round;stroke-miterlimit:10;}
	.st25{opacity:0.6;fill:#58A345;}
	.st26{fill:#D1887F;}
	.st27{fill:#EBB0A0;}
	.st28{fill:#C82039;}
	.st29{fill:#87171E;}
	.st30{fill:#E8C120;}
	.st31{fill:#F8D51C;}
	.st32{fill:#D71D4E;}
	.st33{fill:#A51E23;}
	.st34{fill:#555B51;}
	.st35{fill:#E0B724;}
	.st36{fill:#EDC11B;}
	.st37{fill:#FFD00A;}
	.st38{fill:#6B7499;}
	.st39{fill:#7985A5;}
	.st40{fill:#5D6988;}
	.st41{fill:#FFFFFF;}
	.st42{fill:#FDDD52;}
	.st43{fill:none;stroke:#FBE27D;stroke-width:0.1615;stroke-miterlimit:10;}
	.st44{fill:none;stroke:#FBD742;stroke-width:0.1615;stroke-miterlimit:10;}
	.st45{fill:#E9EFF8;fill-opacity:0.47;}
	.st46{fill:#E1E6F4;}
	.st47{fill:#D7DAE5;}
	.st48{fill:#FFFFFF;fill-opacity:0.7;}
	.st49{fill:#B4BDCE;}
	.st50{fill:#A8B1BE;}
	.st51{fill:#CACCD2;}
	.st52{fill:#737883;}
	.st53{fill:#969EB3;}
	.st54{fill:#349144;}
	.st55{fill:#33803E;}
	.st56{fill:#2C6E37;}
	.st57{fill:#338440;}
	.st58{opacity:0.62;}
	.st59{fill:#40A748;}
	.st60{fill:url(#SVGID_3_);}
	.st61{fill:#E0E8F2;}
	.st62{fill:#C0CFDA;}
	.st63{fill:url(#SVGID_4_);}
	.st64{fill:none;stroke:#FAEAAB;stroke-width:1.2922;stroke-linecap:round;stroke-linejoin:round;}
	.st65{fill:#FBE48B;}
	.st66{fill:none;stroke:#C0CFDA;stroke-width:1.2922;stroke-linejoin:round;stroke-miterlimit:10;}
	.st67{fill:none;stroke:#E0E8F2;stroke-width:0.6461;stroke-miterlimit:10;}
	.st68{opacity:0.63;}
	.st69{fill:#FFFFFF;stroke:#D3E0E7;stroke-width:1.2922;stroke-linecap:round;stroke-linejoin:round;stroke-miterlimit:10;}
	
		.st70{fill:#DEE3E9;fill-opacity:0.4;stroke:#D3E0E7;stroke-width:1.2922;stroke-linecap:round;stroke-linejoin:round;stroke-miterlimit:10;}
	
		.st71{fill:#E0E7ED;fill-opacity:0.4;stroke:#D3E0E7;stroke-width:1.2922;stroke-linecap:round;stroke-linejoin:round;stroke-miterlimit:10;}
	
		.st72{fill:none;stroke:#FFFFFF;stroke-width:3.2305;stroke-linecap:round;stroke-linejoin:round;stroke-miterlimit:10;stroke-opacity:0.53;}
	.st73{opacity:0.7;}
	
		.st74{opacity:0.63;fill:#FFFFFF;stroke:#D3E0E7;stroke-width:1.2922;stroke-linecap:round;stroke-linejoin:round;stroke-miterlimit:10;}
	.st75{fill:#7B7C7D;}
	.st76{fill:#949499;}
	.st77{fill:#8C8C8D;}
	.st78{opacity:0.4;fill:#E7EEF8;}
	.st79{fill:none;stroke:#D3E0E7;stroke-width:1.2922;stroke-linecap:round;stroke-linejoin:round;stroke-miterlimit:10;}
	.st80{opacity:0.4;fill:#E0E7ED;}
	.st81{fill:none;stroke:#FFFFFF;stroke-width:2.5844;stroke-linecap:round;stroke-linejoin:round;stroke-miterlimit:10;}
	.st82{opacity:0.4;fill:#FFFFFF;}
	.st83{opacity:0.19;}
	.st84{fill:#444445;}
	.st85{fill:#2B2B2B;}
	.st86{fill:#3A3A3A;}
	.st87{fill:#383838;}
	.st88{opacity:0.63;fill:#EFF3FA;}
	.st89{fill:none;stroke:#C0CFDA;stroke-width:1.2922;stroke-linecap:round;stroke-linejoin:round;stroke-miterlimit:10;}
	.st90{fill:none;stroke:#CAE6F8;stroke-width:0.6461;stroke-linecap:round;stroke-linejoin:round;stroke-miterlimit:10;}
</style>
<g>
	<g id="inflow_tube_2_" class="st68">
		<path class="st69" d="M67.26,207.51c-0.79,0-1.42-0.64-1.42-1.42c0-6.12-1.07-9.94-3.26-11.69c-2.9-2.31-8.03-1.13-13.97,0.23
			c-11.36,2.61-26.93,6.19-36.34-15.14C-0.54,150.43,1.31,72.37,2,42.99c0.1-4.02,0.16-8.76,0.16-10.37h2.84
			c0,1.64-0.07,6.4-0.16,10.43C4.51,57.29,3.88,83.8,4.91,110.63c1.26,32.81,4.62,55.59,9.96,67.71
			c8.46,19.18,21.55,16.17,33.1,13.51c6.65-1.53,12.4-2.85,16.37,0.31c2.96,2.36,4.34,6.78,4.34,13.92
			C68.69,206.87,68.05,207.51,67.26,207.51z"/>
	</g>
	<g id="inflow_2_">
		<path class="st70" d="M12.45,16.37c-0.79,0.59-1.53-0.47-1.53,3.1c0,3.57,0.74,2.51,1.53,3.1c0.79,0.59,1.38,2.04,1.38,2.04
			l-0.03-5.14l0.03-5.14C13.83,14.33,13.23,15.78,12.45,16.37z"/>
		<path class="st71" d="M17.07,0.65h-6.98c-5.2,0-9.44,3.47-9.44,7.74v24.24h6.63V21.17h3.77V17.6H7.28V8.39
			c0-1.27,1.26-2.3,2.81-2.3h6.98c1.55,0,2.81,1.03,2.81,2.3v70.4h6.63V8.39C26.5,4.12,22.27,0.65,17.07,0.65z"/>
		<line class="st72" x1="23.41" y1="17.02" x2="23.41" y2="75.42"/>
		<line class="st71" x1="2.19" y1="10.63" x2="2.19" y2="29.85"/>
		<path class="st71" d="M26.5,46.22h-2.18c-0.7,0-1.27-0.57-1.27-1.27v0c0-0.7,0.57-1.27,1.27-1.27h2.18V46.22z"/>
		<path class="st71" d="M26.5,51.39h-2.18c-0.7,0-1.27-0.57-1.27-1.27v0c0-0.7,0.57-1.27,1.27-1.27h2.18V51.39z"/>
		<path class="st71" d="M26.5,56.55h-2.18c-0.7,0-1.27-0.57-1.27-1.27l0,0c0-0.7,0.57-1.27,1.27-1.27h2.18V56.55z"/>
		<path class="st71" d="M26.5,61.72h-2.18c-0.7,0-1.27-0.57-1.27-1.27l0,0c0-0.7,0.57-1.27,1.27-1.27h2.18V61.72z"/>
		<path class="st71" d="M26.5,66.88h-2.18c-0.7,0-1.27-0.57-1.27-1.27v0c0-0.7,0.57-1.27,1.27-1.27h2.18V66.88z"/>
		<path class="st71" d="M26.5,72.05h-2.18c-0.7,0-1.27-0.57-1.27-1.27l0,0c0-0.7,0.57-1.27,1.27-1.27h2.18V72.05z"/>
		<path class="st41" d="M11.87,21.65L11.87,21.65c-0.08,0-0.14-0.06-0.14-0.14v-4.1c0-0.08,0.06-0.14,0.14-0.14h0
			c0.08,0,0.14,0.06,0.14,0.14v4.1C12.01,21.59,11.95,21.65,11.87,21.65z"/>
	</g>
</g>
</svg>
