<?xml version="1.0" encoding="utf-8"?>
<!-- Generator: Adobe Illustrator 23.0.4, SVG Export Plug-In . SVG Version: 6.00 Build 0)  -->
<svg version="1.1" id="Layer_1" xmlns="http://www.w3.org/2000/svg" xmlns:xlink="http://www.w3.org/1999/xlink" x="0px" y="0px"
	 viewBox="0 0 193.51 54.61" style="enable-background:new 0 0 193.51 54.61;" xml:space="preserve">
<style type="text/css">
	.st0{fill:#E3E9F6;}
	.st1{fill:#CFDAE7;}
	.st2{fill:#A4AFC2;}
	.st3{fill:#C2CAD9;}
	.st4{fill:#262626;}
	.st5{fill:#C5C0BB;}
	.st6{fill:#24201F;}
	.st7{clip-path:url(#SVGID_2_);fill:#847F80;}
	.st8{fill:#2D2B2C;}
	.st9{fill:#484445;}
	.st10{fill:#A72832;}
	.st11{fill:#962B2D;}
	.st12{fill:#C03140;}
	.st13{fill:#BE2A39;}
	.st14{fill:#D6D6D6;}
	.st15{fill:#D8D8D7;}
	.st16{fill:#DAD9D8;}
	.st17{fill:#D2B5B2;}
	.st18{fill:#BB222D;}
	.st19{fill:#141313;}
	.st20{fill:#554B44;}
	.st21{fill:#716C68;}
	.st22{fill:#98CC76;}
	.st23{fill:#7CC05B;}
	.st24{fill:none;stroke:#58A345;stroke-width:1.2922;stroke-linecap:round;stroke-miterlimit:10;}
	.st25{opacity:0.6;fill:#58A345;}
	.st26{fill:#D1887F;}
	.st27{fill:#EBB0A0;}
	.st28{fill:#C82039;}
	.st29{fill:#87171E;}
	.st30{fill:#E8C120;}
	.st31{fill:#F8D51C;}
	.st32{fill:#D71D4E;}
	.st33{fill:#A51E23;}
	.st34{fill:#555B51;}
	.st35{fill:#E0B724;}
	.st36{fill:#EDC11B;}
	.st37{fill:#FFD00A;}
	.st38{fill:#6B7499;}
	.st39{fill:#7985A5;}
	.st40{fill:#5D6988;}
	.st41{fill:#FFFFFF;}
	.st42{fill:#FDDD52;}
	.st43{fill:none;stroke:#FBE27D;stroke-width:0.1615;stroke-miterlimit:10;}
	.st44{fill:none;stroke:#FBD742;stroke-width:0.1615;stroke-miterlimit:10;}
	.st45{fill:#E9EFF8;fill-opacity:0.47;}
	.st46{fill:#E1E6F4;}
	.st47{fill:#D7DAE5;}
	.st48{fill:#FFFFFF;fill-opacity:0.7;}
	.st49{fill:#B4BDCE;}
	.st50{fill:#A8B1BE;}
	.st51{fill:#CACCD2;}
	.st52{fill:#737883;}
	.st53{fill:#969EB3;}
	.st54{fill:#349144;}
	.st55{fill:#33803E;}
	.st56{fill:#2C6E37;}
	.st57{fill:#338440;}
	.st58{opacity:0.62;}
	.st59{fill:#40A748;}
	.st60{fill:url(#SVGID_3_);}
	.st61{fill:#E0E8F2;}
	.st62{fill:#C0CFDA;}
	.st63{fill:url(#SVGID_4_);}
	.st64{fill:none;stroke:#FAEAAB;stroke-width:1.2922;stroke-linecap:round;stroke-linejoin:round;}
	.st65{fill:#FBE48B;}
	.st66{fill:none;stroke:#C0CFDA;stroke-width:1.2922;stroke-linejoin:round;stroke-miterlimit:10;}
	.st67{fill:none;stroke:#E0E8F2;stroke-width:0.6461;stroke-miterlimit:10;}
	.st68{opacity:0.63;}
	.st69{fill:#FFFFFF;stroke:#D3E0E7;stroke-width:1.2922;stroke-linecap:round;stroke-linejoin:round;stroke-miterlimit:10;}
	
		.st70{fill:#DEE3E9;fill-opacity:0.4;stroke:#D3E0E7;stroke-width:1.2922;stroke-linecap:round;stroke-linejoin:round;stroke-miterlimit:10;}
	
		.st71{fill:#E0E7ED;fill-opacity:0.4;stroke:#D3E0E7;stroke-width:1.2922;stroke-linecap:round;stroke-linejoin:round;stroke-miterlimit:10;}
	
		.st72{fill:none;stroke:#FFFFFF;stroke-width:3.2305;stroke-linecap:round;stroke-linejoin:round;stroke-miterlimit:10;stroke-opacity:0.53;}
	.st73{opacity:0.7;}
	
		.st74{opacity:0.63;fill:#FFFFFF;stroke:#D3E0E7;stroke-width:1.2922;stroke-linecap:round;stroke-linejoin:round;stroke-miterlimit:10;}
	.st75{fill:#7B7C7D;}
	.st76{fill:#949499;}
	.st77{fill:#8C8C8D;}
	.st78{opacity:0.4;fill:#E7EEF8;}
	.st79{fill:none;stroke:#D3E0E7;stroke-width:1.2922;stroke-linecap:round;stroke-linejoin:round;stroke-miterlimit:10;}
	.st80{opacity:0.4;fill:#E0E7ED;}
	.st81{fill:none;stroke:#FFFFFF;stroke-width:2.5844;stroke-linecap:round;stroke-linejoin:round;stroke-miterlimit:10;}
	.st82{opacity:0.4;fill:#FFFFFF;}
	.st83{opacity:0.19;}
	.st84{fill:#444445;}
	.st85{fill:#2B2B2B;}
	.st86{fill:#3A3A3A;}
	.st87{fill:#383838;}
	.st88{opacity:0.63;fill:#EFF3FA;}
	.st89{fill:none;stroke:#C0CFDA;stroke-width:1.2922;stroke-linecap:round;stroke-linejoin:round;stroke-miterlimit:10;}
	.st90{fill:none;stroke:#CAE6F8;stroke-width:0.6461;stroke-linecap:round;stroke-linejoin:round;stroke-miterlimit:10;}
</style>
<g id="lights_2_">
	<g>
		<g>
			<linearGradient id="SVGID_2_" gradientUnits="userSpaceOnUse" x1="12.0367" y1="-3.6899" x2="12.0367" y2="21.981">
				<stop  offset="0" style="stop-color:#29A9E1;stop-opacity:0"/>
				<stop  offset="0.9015" style="stop-color:#CBCBCA"/>
			</linearGradient>
			<rect x="11.69" style="fill:url(#SVGID_2_);" width="0.7" height="25.25"/>
		</g>
		<g>
			<path class="st61" d="M11.73,22.82c-0.24,0-0.44,0.2-0.44,0.44v0.66c0,0.24,0.2,0.44,0.44,0.44h0.33v-1.54H11.73z"/>
			<path class="st1" d="M12.38,22.82h-0.33v1.54h0.33c0.24,0,0.44-0.2,0.44-0.44v-0.66C12.82,23.02,12.62,22.82,12.38,22.82z"/>
		</g>
		<path class="st62" d="M14.78,23.82c0.59,0.78,0.91,2.18,0.91,4.12c0,0.89-0.17,1.52-0.99,1.52s-1-0.63-1-1.52
			c0-0.69-0.06-1.24-0.13-1.61h-3.37c-0.07,0.37-0.13,0.92-0.13,1.61c0,0.86-0.62,1.56-1.41,1.6c0.21,0.13,0.44,0.21,0.7,0.21
			c0.79,0,1.42-0.69,1.42-1.54c0-0.66,0.06-1.18,0.12-1.54h2.28c0.06,0.36,0.12,0.88,0.12,1.54c0,0.85,0.64,1.54,1.42,1.54
			c0.79,0,1.42-0.69,1.42-1.54C16.14,25.87,15.67,24.36,14.78,23.82z"/>
		<g>
			<path class="st61" d="M9.32,24.57c0.25-0.46,0.54-0.77,0.81-0.97H10.1c-1.4,0-2.17,1.64-2.17,4.62c0,0.57,0.29,1.07,0.73,1.33
				c0.06,0,0.12-0.02,0.19-0.03C8.82,28.21,8.83,25.48,9.32,24.57z"/>
			<path class="st1" d="M14.78,23.82c-0.24-0.15-0.51-0.23-0.81-0.23h-3.84c-0.27,0.21-0.57,0.51-0.81,0.97
				c-0.49,0.91-0.5,3.64-0.48,4.95c0.69-0.14,1.22-0.78,1.22-1.57c0-0.69,0.06-1.24,0.13-1.61h3.37c0.07,0.37,0.13,0.92,0.13,1.61
				c0,0.89,0.18,1.52,1,1.52s0.99-0.63,0.99-1.52C15.69,26,15.37,24.6,14.78,23.82z"/>
		</g>
		<g>
			<linearGradient id="SVGID_3_" gradientUnits="userSpaceOnUse" x1="181.214" y1="-3.6899" x2="181.214" y2="21.981">
				<stop  offset="0" style="stop-color:#29A9E1;stop-opacity:0"/>
				<stop  offset="0.9015" style="stop-color:#CBCBCA"/>
			</linearGradient>
			<rect x="180.86" class="st60" width="0.7" height="25.25"/>
		</g>
		<g>
			<path class="st61" d="M180.9,22.82c-0.24,0-0.44,0.2-0.44,0.44v0.66c0,0.24,0.2,0.44,0.44,0.44h0.33v-1.54H180.9z"/>
			<path class="st1" d="M181.56,22.82h-0.33v1.54h0.33c0.24,0,0.44-0.2,0.44-0.44v-0.66C182,23.02,181.8,22.82,181.56,22.82z"/>
		</g>
		<path class="st62" d="M183.96,23.82c0.59,0.78,0.91,2.18,0.91,4.12c0,0.89-0.17,1.52-0.99,1.52c-0.82,0-1-0.63-1-1.52
			c0-0.69-0.06-1.24-0.13-1.61h-3.37c-0.07,0.37-0.13,0.92-0.13,1.61c0,0.86-0.62,1.56-1.41,1.6c0.21,0.13,0.44,0.21,0.7,0.21
			c0.79,0,1.42-0.69,1.42-1.54c0-0.66,0.06-1.18,0.12-1.54h2.28c0.06,0.36,0.12,0.88,0.12,1.54c0,0.85,0.64,1.54,1.42,1.54
			s1.42-0.69,1.42-1.54C185.32,25.87,184.84,24.36,183.96,23.82z"/>
		<g>
			<path class="st61" d="M178.5,24.57c0.25-0.46,0.54-0.77,0.81-0.97h-0.03c-1.4,0-2.17,1.64-2.17,4.62c0,0.57,0.29,1.07,0.73,1.33
				c0.06,0,0.12-0.02,0.19-0.03C177.99,28.21,178.01,25.48,178.5,24.57z"/>
			<path class="st1" d="M183.96,23.82c-0.24-0.15-0.51-0.23-0.81-0.23h-3.84c-0.27,0.21-0.57,0.51-0.81,0.97
				c-0.49,0.91-0.5,3.64-0.48,4.95c0.69-0.14,1.22-0.78,1.22-1.57c0-0.69,0.06-1.24,0.13-1.61h3.37c0.07,0.37,0.13,0.92,0.13,1.61
				c0,0.89,0.18,1.52,1,1.52c0.82,0,0.99-0.63,0.99-1.52C184.86,26,184.55,24.6,183.96,23.82z"/>
		</g>
	</g>
	<rect y="28.49" class="st1" width="192.86" height="6.16"/>
	<g>
		<g>
			<g>
				<g>
					<line class="st64" x1="13.5" y1="39.91" x2="10.84" y2="44.71"/>
					<line class="st64" x1="9.06" y1="47.91" x2="6.39" y2="52.71"/>
				</g>
			</g>
			<g>
				<g>
					<line class="st64" x1="26.2" y1="39.91" x2="28.86" y2="44.71"/>
					<line class="st64" x1="30.64" y1="47.91" x2="33.31" y2="52.71"/>
				</g>
			</g>
			<g>
				<g>
					<line class="st64" x1="19.85" y1="39.91" x2="19.85" y2="45.4"/>
					<line class="st64" x1="19.85" y1="48.47" x2="19.85" y2="53.96"/>
				</g>
			</g>
		</g>
		<path class="st65" d="M28.14,34.65c0,1.09-3.71,1.97-8.29,1.97s-8.29-0.88-8.29-1.97"/>
		<g>
			<g>
				<g>
					<line class="st64" x1="51.79" y1="39.91" x2="49.13" y2="44.71"/>
					<line class="st64" x1="47.35" y1="47.91" x2="44.69" y2="52.71"/>
				</g>
			</g>
			<g>
				<g>
					<line class="st64" x1="64.49" y1="39.91" x2="67.15" y2="44.71"/>
					<line class="st64" x1="68.93" y1="47.91" x2="71.6" y2="52.71"/>
				</g>
			</g>
			<g>
				<g>
					<line class="st64" x1="58.14" y1="39.91" x2="58.14" y2="45.4"/>
					<line class="st64" x1="58.14" y1="48.47" x2="58.14" y2="53.96"/>
				</g>
			</g>
		</g>
		<path class="st65" d="M66.43,34.65c0,1.09-3.71,1.97-8.29,1.97s-8.29-0.88-8.29-1.97"/>
		<g>
			<g>
				<g>
					<line class="st64" x1="90.08" y1="39.91" x2="87.42" y2="44.71"/>
					<line class="st64" x1="85.64" y1="47.91" x2="82.98" y2="52.71"/>
				</g>
			</g>
			<g>
				<g>
					<line class="st64" x1="102.78" y1="39.91" x2="105.45" y2="44.71"/>
					<line class="st64" x1="107.22" y1="47.91" x2="109.89" y2="52.71"/>
				</g>
			</g>
			<g>
				<g>
					<line class="st64" x1="96.43" y1="39.91" x2="96.43" y2="45.4"/>
					<line class="st64" x1="96.43" y1="48.47" x2="96.43" y2="53.96"/>
				</g>
			</g>
		</g>
		<path class="st65" d="M104.72,34.65c0,1.09-3.71,1.97-8.29,1.97c-4.58,0-8.29-0.88-8.29-1.97"/>
		<g>
			<g>
				<g>
					<line class="st64" x1="128.37" y1="39.91" x2="125.71" y2="44.71"/>
					<line class="st64" x1="123.93" y1="47.91" x2="121.27" y2="52.71"/>
				</g>
			</g>
			<g>
				<g>
					<line class="st64" x1="141.07" y1="39.91" x2="143.74" y2="44.71"/>
					<line class="st64" x1="145.51" y1="47.91" x2="148.18" y2="52.71"/>
				</g>
			</g>
			<g>
				<g>
					<line class="st64" x1="134.72" y1="39.91" x2="134.72" y2="45.4"/>
					<line class="st64" x1="134.72" y1="48.47" x2="134.72" y2="53.96"/>
				</g>
			</g>
		</g>
		<path class="st65" d="M143.02,34.65c0,1.09-3.71,1.97-8.29,1.97s-8.29-0.88-8.29-1.97"/>
		<g>
			<g>
				<g>
					<line class="st64" x1="166.67" y1="39.91" x2="164" y2="44.71"/>
					<line class="st64" x1="162.22" y1="47.91" x2="159.56" y2="52.71"/>
				</g>
			</g>
			<g>
				<g>
					<line class="st64" x1="179.36" y1="39.91" x2="182.03" y2="44.71"/>
					<line class="st64" x1="183.81" y1="47.91" x2="186.47" y2="52.71"/>
				</g>
			</g>
			<g>
				<g>
					<line class="st64" x1="173.01" y1="39.91" x2="173.01" y2="45.4"/>
					<line class="st64" x1="173.01" y1="48.47" x2="173.01" y2="53.96"/>
				</g>
			</g>
		</g>
		<path class="st65" d="M181.31,34.65c0,1.09-3.71,1.97-8.29,1.97c-4.58,0-8.29-0.88-8.29-1.97"/>
	</g>
	<polyline class="st66" points="0,34.65 192.86,34.65 192.86,28.49 	"/>
	<line class="st67" x1="0" y1="35.3" x2="0" y2="28.49"/>
</g>
</svg>
