<?xml version="1.0" encoding="utf-8"?>
<!-- Generator: Adobe Illustrator 23.0.4, SVG Export Plug-In . SVG Version: 6.00 Build 0)  -->
<svg version="1.1" id="Layer_1" xmlns="http://www.w3.org/2000/svg" xmlns:xlink="http://www.w3.org/1999/xlink" x="0px" y="0px"
	 viewBox="0 0 173.76 314" style="enable-background:new 0 0 173.76 314;" xml:space="preserve">
<style type="text/css">
	.st0{fill:#E3E9F6;}
	.st1{fill:#CFDAE7;}
	.st2{fill:#A4AFC2;}
	.st3{fill:#C2CAD9;}
	.st4{fill:#262626;}
	.st5{fill:#C5C0BB;}
	.st6{fill:#24201F;}
	.st7{clip-path:url(#SVGID_2_);fill:#847F80;}
	.st8{fill:#2D2B2C;}
	.st9{fill:#484445;}
	.st10{fill:#A72832;}
	.st11{fill:#962B2D;}
	.st12{fill:#C03140;}
	.st13{fill:#BE2A39;}
	.st14{fill:#D6D6D6;}
	.st15{fill:#D8D8D7;}
	.st16{fill:#DAD9D8;}
	.st17{fill:#D2B5B2;}
	.st18{fill:#BB222D;}
	.st19{fill:#141313;}
	.st20{fill:#554B44;}
	.st21{fill:#716C68;}
	.st22{fill:#98CC76;}
	.st23{fill:#7CC05B;}
	.st24{fill:none;stroke:#58A345;stroke-width:1.2922;stroke-linecap:round;stroke-miterlimit:10;}
	.st25{opacity:0.6;fill:#58A345;}
	.st26{fill:#D1887F;}
	.st27{fill:#EBB0A0;}
	.st28{fill:#C82039;}
	.st29{fill:#87171E;}
	.st30{fill:#E8C120;}
	.st31{fill:#F8D51C;}
	.st32{fill:#D71D4E;}
	.st33{fill:#A51E23;}
	.st34{fill:#555B51;}
	.st35{fill:#E0B724;}
	.st36{fill:#EDC11B;}
	.st37{fill:#FFD00A;}
	.st38{fill:#6B7499;}
	.st39{fill:#7985A5;}
	.st40{fill:#5D6988;}
	.st41{fill:#FFFFFF;}
	.st42{fill:#FDDD52;}
	.st43{fill:none;stroke:#FBE27D;stroke-width:0.1615;stroke-miterlimit:10;}
	.st44{fill:none;stroke:#FBD742;stroke-width:0.1615;stroke-miterlimit:10;}
	.st45{fill:#E9EFF8;fill-opacity:0.47;}
	.st46{fill:#E1E6F4;}
	.st47{fill:#D7DAE5;}
	.st48{fill:#FFFFFF;fill-opacity:0.7;}
	.st49{fill:#B4BDCE;}
	.st50{fill:#A8B1BE;}
	.st51{fill:#CACCD2;}
	.st52{fill:#737883;}
	.st53{fill:#969EB3;}
	.st54{fill:#349144;}
	.st55{fill:#33803E;}
	.st56{fill:#2C6E37;}
	.st57{fill:#338440;}
	.st58{opacity:0.62;}
	.st59{fill:#40A748;}
	.st60{fill:url(#SVGID_3_);}
	.st61{fill:#E0E8F2;}
	.st62{fill:#C0CFDA;}
	.st63{fill:url(#SVGID_4_);}
	.st64{fill:none;stroke:#FAEAAB;stroke-width:1.2922;stroke-linecap:round;stroke-linejoin:round;}
	.st65{fill:#FBE48B;}
	.st66{fill:none;stroke:#C0CFDA;stroke-width:1.2922;stroke-linejoin:round;stroke-miterlimit:10;}
	.st67{fill:none;stroke:#E0E8F2;stroke-width:0.6461;stroke-miterlimit:10;}
	.st68{opacity:0.63;}
	.st69{fill:#FFFFFF;stroke:#D3E0E7;stroke-width:1.2922;stroke-linecap:round;stroke-linejoin:round;stroke-miterlimit:10;}
	
		.st70{fill:#DEE3E9;fill-opacity:0.4;stroke:#D3E0E7;stroke-width:1.2922;stroke-linecap:round;stroke-linejoin:round;stroke-miterlimit:10;}
	
		.st71{fill:#E0E7ED;fill-opacity:0.4;stroke:#D3E0E7;stroke-width:1.2922;stroke-linecap:round;stroke-linejoin:round;stroke-miterlimit:10;}
	
		.st72{fill:none;stroke:#FFFFFF;stroke-width:3.2305;stroke-linecap:round;stroke-linejoin:round;stroke-miterlimit:10;stroke-opacity:0.53;}
	.st73{opacity:0.7;}
	
		.st74{opacity:0.63;fill:#FFFFFF;stroke:#D3E0E7;stroke-width:1.2922;stroke-linecap:round;stroke-linejoin:round;stroke-miterlimit:10;}
	.st75{fill:#7B7C7D;}
	.st76{fill:#949499;}
	.st77{fill:#8C8C8D;}
	.st78{opacity:0.4;fill:#E7EEF8;}
	.st79{fill:none;stroke:#D3E0E7;stroke-width:1.2922;stroke-linecap:round;stroke-linejoin:round;stroke-miterlimit:10;}
	.st80{opacity:0.4;fill:#E0E7ED;}
	.st81{fill:none;stroke:#FFFFFF;stroke-width:2.5844;stroke-linecap:round;stroke-linejoin:round;stroke-miterlimit:10;}
	.st82{opacity:0.4;fill:#FFFFFF;}
	.st83{opacity:0.19;}
	.st84{fill:#444445;}
	.st85{fill:#2B2B2B;}
	.st86{fill:#3A3A3A;}
	.st87{fill:#383838;}
	.st88{opacity:0.63;fill:#EFF3FA;}
	.st89{fill:none;stroke:#C0CFDA;stroke-width:1.2922;stroke-linecap:round;stroke-linejoin:round;stroke-miterlimit:10;}
	.st90{fill:none;stroke:#CAE6F8;stroke-width:0.6461;stroke-linecap:round;stroke-linejoin:round;stroke-miterlimit:10;}
</style>
<g>
	<g id="split_tube_02_2_" class="st73">
		<path class="st69" d="M135.45,292.85c-9.99,0-17.24-4.44-22.15-13.56c-4.86-9.04-7.07-22.13-8.59-33.74
			c-1.76-13.47-2.62-30.72-2.62-52.72c0-0.79,0.64-1.42,1.42-1.42s1.42,0.64,1.42,1.42c0,21.87,0.85,39,2.59,52.35
			c3.71,28.39,9.47,44.83,27.91,44.83c18.41,0,25.05-22.15,27.38-40.74c2.16-17.21,3.12-40.2,3.13-40.43
			c0.03-0.78,0.69-1.4,1.48-1.36c0.78,0.03,1.39,0.69,1.36,1.48c-0.01,0.23-0.97,23.34-3.15,40.67
			C162.11,277.9,151.67,292.85,135.45,292.85z"/>
	</g>
	<g id="split_tube_01_2_" class="st68">
		<path class="st69" d="M85.67,313.36c-16.22,0-33.9-1.87-49.6-3.53c-12.89-1.36-25.06-2.65-34-2.65c-0.79,0-1.42-0.64-1.42-1.42
			c0-0.79,0.64-1.42,1.42-1.42c9.09,0,21.34,1.3,34.3,2.67c29.95,3.17,67.22,7.11,86.78-2.74c15.39-7.75,25.75-18.55,32.61-33.98
			c6.86-15.46,10.2-36.18,10.2-63.37c0-0.79,0.64-1.42,1.42-1.42s1.42,0.64,1.42,1.42c0,27.59-3.42,48.7-10.45,64.52
			c-7.04,15.85-18.14,27.42-33.93,35.37C114.63,311.73,100.78,313.36,85.67,313.36z"/>
	</g>
	<path id="outflow_tube_2_" class="st74" d="M166.86,207.82c-0.98,0-1.78-1.31-1.78-2.92v-167h3.55v167
		C168.64,206.52,167.84,207.82,166.86,207.82z"/>
	<g id="inline_diffuser_2_">
		<path class="st75" d="M169.41,213.48h-5.09c-0.52,0-0.94-0.42-0.94-0.94l0,0c0-0.52,0.42-0.94,0.94-0.94h5.09
			c0.52,0,0.94,0.42,0.94,0.94l0,0C170.35,213.05,169.92,213.48,169.41,213.48z"/>
		<g>
			<path class="st76" d="M165.01,197.52c0.43,0.38,4.15,0.21,5.05,0.17c0.04-0.1,0.06-0.21,0.06-0.32c0-0.52-0.42-0.94-0.94-0.94
				h-4.17C164.85,196.81,164.73,197.28,165.01,197.52z"/>
			<path class="st77" d="M165.01,197.52c-0.28-0.24-0.16-0.72,0-1.09h-0.46c-0.52,0-0.94,0.42-0.94,0.94c0,0.52,0.42,0.94,0.94,0.94
				h4.64c0.4,0,0.75-0.26,0.88-0.62C169.16,197.74,165.44,197.9,165.01,197.52z"/>
		</g>
		<g>
			<path class="st77" d="M164.73,211.09c-1.5-0.15-3.12-9.57-3.6-12.52c-0.71,0.51-1.17,1.33-1.17,2.26l1.97,9.25
				c0,1.29,1.06,2.35,2.35,2.35h5.15c0.93,0,1.73-0.55,2.11-1.33C169.36,211.3,165.93,211.21,164.73,211.09z"/>
			<path class="st76" d="M173.76,200.83c0-1.53-1.25-2.78-2.78-2.78h-8.23c-0.6,0-1.16,0.19-1.61,0.52
				c0.47,2.94,2.1,12.37,3.6,12.52c1.2,0.12,4.63,0.21,6.81,0.01c0.15-0.31,0.24-0.65,0.24-1.02L173.76,200.83z"/>
		</g>
	</g>
	<g id="outflow_2_">
		<g>
			<g>
				<path class="st78" d="M156.77,18.93c-0.91-0.69-1.6-2.38-1.6-2.38l0.03,5.98l-0.03,5.98c0,0,0.69-1.69,1.6-2.38
					c0.91-0.69,1.78,0.55,1.78-3.6C158.54,18.38,157.68,19.62,156.77,18.93z"/>
				<path class="st79" d="M156.77,18.93c-0.91-0.69-1.6-2.38-1.6-2.38l0.03,5.98l-0.03,5.98c0,0,0.69-1.69,1.6-2.38
					c0.91-0.69,1.78,0.55,1.78-3.6C158.54,18.38,157.68,19.62,156.77,18.93z"/>
			</g>
			<g>
				<path class="st80" d="M159.57,0.65h-5.07c-6.05,0-10.98,4.04-10.98,9.01c0,0,0.05,5.68,0,6.51c-0.07,1.19-0.6,2.45-1.46,3.73
					c-3.41-2.03-8.42-2.25-9.48-0.44c-1.38,2.34-6.26,25.7-2.21,22.18c4.05-3.51,11.53-7.38,11.53-7.38c3.11-2,4.52-5.68,3.82-9.11
					c2.4-2.69,4.09-5.63,4.29-8.66c0.01-0.15,0.02-6.82,0.02-6.82c0-1.48,1.46-2.68,3.26-2.68h6.27c1.8,0,3.26,1.2,3.26,2.68v10.71
					h-4.29v4.15h4.29v13.34h7.71V9.65C170.55,4.69,165.62,0.65,159.57,0.65z"/>
				<path class="st79" d="M159.57,0.65h-5.07c-6.05,0-10.98,4.04-10.98,9.01c0,0,0.05,5.68,0,6.51c-0.07,1.19-0.6,2.45-1.46,3.73
					c-3.41-2.03-8.42-2.25-9.48-0.44c-1.38,2.34-6.26,25.7-2.21,22.18c4.05-3.51,11.53-7.38,11.53-7.38c3.11-2,4.52-5.68,3.82-9.11
					c2.4-2.69,4.09-5.63,4.29-8.66c0.01-0.15,0.02-6.82,0.02-6.82c0-1.48,1.46-2.68,3.26-2.68h6.27c1.8,0,3.26,1.2,3.26,2.68v10.71
					h-4.29v4.15h4.29v13.34h7.71V9.65C170.55,4.69,165.62,0.65,159.57,0.65z"/>
			</g>
			<line class="st81" x1="167.65" y1="8.35" x2="167.65" y2="35.52"/>
			<g>
				<path class="st41" d="M144.62,24.94c-0.93-0.19-1.84-0.71-2.43-1.53c-0.59-0.82-0.88-1.82-0.77-2.84l0.12,0.24
					c-0.52-0.37-1.08-0.7-1.68-0.96c-0.6-0.26-1.24-0.42-1.88-0.52c-0.65-0.08-1.3-0.09-1.93-0.03c-0.63,0.06-1.26,0.19-1.77,0.47
					c-0.26,0.14-0.46,0.33-0.59,0.54c-0.13,0.22-0.23,0.55-0.33,0.84l-0.57,1.86c-0.37,1.25-0.72,2.52-1.14,3.77
					c-0.01,0.02-0.02,0.03-0.04,0.02c-0.01,0-0.02-0.02-0.02-0.03c0.11-1.32,0.33-2.62,0.61-3.91c0.14-0.65,0.3-1.29,0.51-1.93
					c0.11-0.32,0.2-0.63,0.42-0.97c0.22-0.34,0.54-0.58,0.87-0.74c1.34-0.62,2.75-0.39,4.03-0.13c1.29,0.31,2.57,0.66,3.78,1.29
					c0.07,0.04,0.11,0.11,0.12,0.18l0,0.05c0.03,0.86,0.23,1.77,0.69,2.51c0.24,0.37,0.51,0.73,0.87,1.01
					c0.34,0.3,0.74,0.53,1.16,0.75c0.02,0.01,0.02,0.03,0.02,0.04C144.65,24.94,144.64,24.94,144.62,24.94z"/>
			</g>
			<g>
				<path class="st82" d="M140.35,21.26c-0.16-0.37-0.61-0.97-2.51-1.05c-1.9-0.07-2.48,0.33-2.54,0.7
					c-0.06,0.37-0.17,1.11,0.62,1.08c0.79-0.03,0.93-0.37,1.89-0.2s1.75,0.87,2.09,0.56C140.23,22.05,140.54,21.71,140.35,21.26z"/>
			</g>
		</g>
	</g>
</g>
</svg>
