<?xml version="1.0" encoding="utf-8"?>
<!-- Generator: Adobe Illustrator 23.0.4, SVG Export Plug-In . SVG Version: 6.00 Build 0)  -->
<svg version="1.1" id="Layer_1" xmlns="http://www.w3.org/2000/svg" xmlns:xlink="http://www.w3.org/1999/xlink" x="0px" y="0px"
	 viewBox="0 0 36.54 46.36" style="enable-background:new 0 0 36.54 46.36;" xml:space="preserve">
<style type="text/css">
	.st0{fill:#E3E9F6;}
	.st1{fill:#CFDAE7;}
	.st2{fill:#A4AFC2;}
	.st3{fill:#C2CAD9;}
	.st4{fill:#262626;}
	.st5{fill:#C5C0BB;}
	.st6{fill:#24201F;}
	.st7{clip-path:url(#SVGID_2_);fill:#847F80;}
	.st8{fill:#2D2B2C;}
	.st9{fill:#484445;}
	.st10{fill:#A72832;}
	.st11{fill:#962B2D;}
	.st12{fill:#C03140;}
	.st13{fill:#BE2A39;}
	.st14{fill:#D6D6D6;}
	.st15{fill:#D8D8D7;}
	.st16{fill:#DAD9D8;}
	.st17{fill:#D2B5B2;}
	.st18{fill:#BB222D;}
	.st19{fill:#141313;}
	.st20{fill:#554B44;}
	.st21{fill:#716C68;}
	.st22{fill:#98CC76;}
	.st23{fill:#7CC05B;}
	.st24{fill:none;stroke:#58A345;stroke-width:1.2922;stroke-linecap:round;stroke-miterlimit:10;}
	.st25{opacity:0.6;fill:#58A345;}
	.st26{fill:#D1887F;}
	.st27{fill:#EBB0A0;}
	.st28{fill:#C82039;}
	.st29{fill:#87171E;}
	.st30{fill:#E8C120;}
	.st31{fill:#F8D51C;}
	.st32{fill:#D71D4E;}
	.st33{fill:#A51E23;}
	.st34{fill:#555B51;}
	.st35{fill:#E0B724;}
	.st36{fill:#EDC11B;}
	.st37{fill:#FFD00A;}
	.st38{fill:#6B7499;}
	.st39{fill:#7985A5;}
	.st40{fill:#5D6988;}
	.st41{fill:#FFFFFF;}
	.st42{fill:#FDDD52;}
	.st43{fill:none;stroke:#FBE27D;stroke-width:0.1615;stroke-miterlimit:10;}
	.st44{fill:none;stroke:#FBD742;stroke-width:0.1615;stroke-miterlimit:10;}
	.st45{fill:#E9EFF8;fill-opacity:0.47;}
	.st46{fill:#E1E6F4;}
	.st47{fill:#D7DAE5;}
	.st48{fill:#FFFFFF;fill-opacity:0.7;}
	.st49{fill:#B4BDCE;}
	.st50{fill:#A8B1BE;}
	.st51{fill:#CACCD2;}
	.st52{fill:#737883;}
	.st53{fill:#969EB3;}
	.st54{fill:#349144;}
	.st55{fill:#33803E;}
	.st56{fill:#2C6E37;}
	.st57{fill:#338440;}
	.st58{opacity:0.62;}
	.st59{fill:#40A748;}
	.st60{fill:url(#SVGID_3_);}
	.st61{fill:#E0E8F2;}
	.st62{fill:#C0CFDA;}
	.st63{fill:url(#SVGID_4_);}
	.st64{fill:none;stroke:#FAEAAB;stroke-width:1.2922;stroke-linecap:round;stroke-linejoin:round;}
	.st65{fill:#FBE48B;}
	.st66{fill:none;stroke:#C0CFDA;stroke-width:1.2922;stroke-linejoin:round;stroke-miterlimit:10;}
	.st67{fill:none;stroke:#E0E8F2;stroke-width:0.6461;stroke-miterlimit:10;}
	.st68{opacity:0.63;}
	.st69{fill:#FFFFFF;stroke:#D3E0E7;stroke-width:1.2922;stroke-linecap:round;stroke-linejoin:round;stroke-miterlimit:10;}
	
		.st70{fill:#DEE3E9;fill-opacity:0.4;stroke:#D3E0E7;stroke-width:1.2922;stroke-linecap:round;stroke-linejoin:round;stroke-miterlimit:10;}
	
		.st71{fill:#E0E7ED;fill-opacity:0.4;stroke:#D3E0E7;stroke-width:1.2922;stroke-linecap:round;stroke-linejoin:round;stroke-miterlimit:10;}
	
		.st72{fill:none;stroke:#FFFFFF;stroke-width:3.2305;stroke-linecap:round;stroke-linejoin:round;stroke-miterlimit:10;stroke-opacity:0.53;}
	.st73{opacity:0.7;}
	
		.st74{opacity:0.63;fill:#FFFFFF;stroke:#D3E0E7;stroke-width:1.2922;stroke-linecap:round;stroke-linejoin:round;stroke-miterlimit:10;}
	.st75{fill:#7B7C7D;}
	.st76{fill:#949499;}
	.st77{fill:#8C8C8D;}
	.st78{opacity:0.4;fill:#E7EEF8;}
	.st79{fill:none;stroke:#D3E0E7;stroke-width:1.2922;stroke-linecap:round;stroke-linejoin:round;stroke-miterlimit:10;}
	.st80{opacity:0.4;fill:#E0E7ED;}
	.st81{fill:none;stroke:#FFFFFF;stroke-width:2.5844;stroke-linecap:round;stroke-linejoin:round;stroke-miterlimit:10;}
	.st82{opacity:0.4;fill:#FFFFFF;}
	.st83{opacity:0.19;}
	.st84{fill:#444445;}
	.st85{fill:#2B2B2B;}
	.st86{fill:#3A3A3A;}
	.st87{fill:#383838;}
	.st88{opacity:0.63;fill:#EFF3FA;}
	.st89{fill:none;stroke:#C0CFDA;stroke-width:1.2922;stroke-linecap:round;stroke-linejoin:round;stroke-miterlimit:10;}
	.st90{fill:none;stroke:#CAE6F8;stroke-width:0.6461;stroke-linecap:round;stroke-linejoin:round;stroke-miterlimit:10;}
</style>
<g id="plant_01_2_">
	<path class="st22" d="M12.63,45.71c0,0-15.19-5.36-12.26-17.24C2.89,18.3,7.94,17.97,7.49,12.14c-0.08-0.98-2.13-2.15-0.73-3.46
		s8.55,4.21,6.89,10.92s-6,7.98-2.81,12.32S11.87,40.48,12.63,45.71z"/>
	<path class="st23" d="M33.7,16.92c2.17,1.34-0.89,6.23,1.28,9.79c2.17,3.56,3.39,12.37-5.53,13.52s-7.24,8.21-14.39,4.17
		S15.66,33.17,19,31.27c3.34-1.9,6.91,2.82,7.81-3.05C27.7,22.34,31.53,15.58,33.7,16.92z"/>
	<path class="st24" d="M13.9,42.14c0,0,5.04-6.13,11.24-6.13c8.55,0,2.91-9.31,7.02-16.48"/>
	<path class="st24" d="M8.99,10.85c0,0,3.87,3.13,1.09,7.28c-3.1,4.62-7.65,10.73-1.4,17.55c4.69,5.12,3.06,7.91,3.06,7.91"/>
	<path class="st25" d="M26.64,30.82c-0.08-0.37-0.15-0.72-0.21-1.07c-1.28,3.4-4.45-0.18-7.43,1.52c-3.34,1.9-11.09,9.08-3.94,13.12
		c0.55,0.31,1.05,0.55,1.5,0.74C21.28,42.86,28.18,38.2,26.64,30.82z"/>
	<path class="st23" d="M11.43,45.71c0,0,16.48-4.95,14.18-15.95s1.4-12.41,3.45-18.03S26.97,0,24.34,0s0.13,9.44-3.58,11.72
		s-7.28,8.17-4.98,13.93s-4.1,2.87-6.52,8.09S11.43,45.71,11.43,45.71z"/>
	<path class="st24" d="M11.43,45.71c0,0,0.56-8.68,3.75-10.09s6.26-3.9,4.21-9.16s-0.32-10.37,3.43-12.3
		c3.29-1.69,4.32-6.52,2.2-11.49"/>
</g>
</svg>
