<?xml version="1.0" encoding="utf-8"?>
<!-- Generator: Adobe Illustrator 23.0.4, SVG Export Plug-In . SVG Version: 6.00 Build 0)  -->
<svg version="1.1" id="Layer_1" xmlns="http://www.w3.org/2000/svg" xmlns:xlink="http://www.w3.org/1999/xlink" x="0px" y="0px"
	 viewBox="0 0 86.2 91.58" style="enable-background:new 0 0 86.2 91.58;" xml:space="preserve">
<style type="text/css">
	.st0{fill:#E3E9F6;}
	.st1{fill:#CFDAE7;}
	.st2{fill:#A4AFC2;}
	.st3{fill:#C2CAD9;}
	.st4{fill:#262626;}
	.st5{fill:#C5C0BB;}
	.st6{fill:#24201F;}
	.st7{clip-path:url(#SVGID_2_);fill:#847F80;}
	.st8{fill:#2D2B2C;}
	.st9{fill:#484445;}
	.st10{fill:#A72832;}
	.st11{fill:#962B2D;}
	.st12{fill:#C03140;}
	.st13{fill:#BE2A39;}
	.st14{fill:#D6D6D6;}
	.st15{fill:#D8D8D7;}
	.st16{fill:#DAD9D8;}
	.st17{fill:#D2B5B2;}
	.st18{fill:#BB222D;}
	.st19{fill:#141313;}
	.st20{fill:#554B44;}
	.st21{fill:#716C68;}
	.st22{fill:#98CC76;}
	.st23{fill:#7CC05B;}
	.st24{fill:none;stroke:#58A345;stroke-width:1.2922;stroke-linecap:round;stroke-miterlimit:10;}
	.st25{opacity:0.6;fill:#58A345;}
	.st26{fill:#D1887F;}
	.st27{fill:#EBB0A0;}
	.st28{fill:#C82039;}
	.st29{fill:#87171E;}
	.st30{fill:#E8C120;}
	.st31{fill:#F8D51C;}
	.st32{fill:#D71D4E;}
	.st33{fill:#A51E23;}
	.st34{fill:#555B51;}
	.st35{fill:#E0B724;}
	.st36{fill:#EDC11B;}
	.st37{fill:#FFD00A;}
	.st38{fill:#6B7499;}
	.st39{fill:#7985A5;}
	.st40{fill:#5D6988;}
	.st41{fill:#FFFFFF;}
	.st42{fill:#FDDD52;}
	.st43{fill:none;stroke:#FBE27D;stroke-width:0.1615;stroke-miterlimit:10;}
	.st44{fill:none;stroke:#FBD742;stroke-width:0.1615;stroke-miterlimit:10;}
	.st45{fill:#E9EFF8;fill-opacity:0.47;}
	.st46{fill:#E1E6F4;}
	.st47{fill:#D7DAE5;}
	.st48{fill:#FFFFFF;fill-opacity:0.7;}
	.st49{fill:#B4BDCE;}
	.st50{fill:#A8B1BE;}
	.st51{fill:#CACCD2;}
	.st52{fill:#737883;}
	.st53{fill:#969EB3;}
	.st54{fill:#349144;}
	.st55{fill:#33803E;}
	.st56{fill:#2C6E37;}
	.st57{fill:#338440;}
	.st58{opacity:0.62;}
	.st59{fill:#40A748;}
	.st60{fill:url(#SVGID_3_);}
	.st61{fill:#E0E8F2;}
	.st62{fill:#C0CFDA;}
	.st63{fill:url(#SVGID_4_);}
	.st64{fill:none;stroke:#FAEAAB;stroke-width:1.2922;stroke-linecap:round;stroke-linejoin:round;}
	.st65{fill:#FBE48B;}
	.st66{fill:none;stroke:#C0CFDA;stroke-width:1.2922;stroke-linejoin:round;stroke-miterlimit:10;}
	.st67{fill:none;stroke:#E0E8F2;stroke-width:0.6461;stroke-miterlimit:10;}
	.st68{opacity:0.63;}
	.st69{fill:#FFFFFF;stroke:#D3E0E7;stroke-width:1.2922;stroke-linecap:round;stroke-linejoin:round;stroke-miterlimit:10;}
	
		.st70{fill:#DEE3E9;fill-opacity:0.4;stroke:#D3E0E7;stroke-width:1.2922;stroke-linecap:round;stroke-linejoin:round;stroke-miterlimit:10;}
	
		.st71{fill:#E0E7ED;fill-opacity:0.4;stroke:#D3E0E7;stroke-width:1.2922;stroke-linecap:round;stroke-linejoin:round;stroke-miterlimit:10;}
	
		.st72{fill:none;stroke:#FFFFFF;stroke-width:3.2305;stroke-linecap:round;stroke-linejoin:round;stroke-miterlimit:10;stroke-opacity:0.53;}
	.st73{opacity:0.7;}
	
		.st74{opacity:0.63;fill:#FFFFFF;stroke:#D3E0E7;stroke-width:1.2922;stroke-linecap:round;stroke-linejoin:round;stroke-miterlimit:10;}
	.st75{fill:#7B7C7D;}
	.st76{fill:#949499;}
	.st77{fill:#8C8C8D;}
	.st78{opacity:0.4;fill:#E7EEF8;}
	.st79{fill:none;stroke:#D3E0E7;stroke-width:1.2922;stroke-linecap:round;stroke-linejoin:round;stroke-miterlimit:10;}
	.st80{opacity:0.4;fill:#E0E7ED;}
	.st81{fill:none;stroke:#FFFFFF;stroke-width:2.5844;stroke-linecap:round;stroke-linejoin:round;stroke-miterlimit:10;}
	.st82{opacity:0.4;fill:#FFFFFF;}
	.st83{opacity:0.19;}
	.st84{fill:#444445;}
	.st85{fill:#2B2B2B;}
	.st86{fill:#3A3A3A;}
	.st87{fill:#383838;}
	.st88{opacity:0.63;fill:#EFF3FA;}
	.st89{fill:none;stroke:#C0CFDA;stroke-width:1.2922;stroke-linecap:round;stroke-linejoin:round;stroke-miterlimit:10;}
	.st90{fill:none;stroke:#CAE6F8;stroke-width:0.6461;stroke-linecap:round;stroke-linejoin:round;stroke-miterlimit:10;}
</style>
<g id="hardscape_2_">
	<path class="st1" d="M63.39,47.85c-3.79,1.89-31.27,7.61-30.21,10.42c0,0-1.07,5.09,14.33,5.21c11.43,0.09,28.4,0.79,36.49-2.52
		c-5.68-6.41-19.93-10.01-12.4-21.17c0.05-0.08,0.1-0.16,0.15-0.24C69.16,42.8,65.6,46.75,63.39,47.85z"/>
	<path class="st1" d="M54.15,23.68c6.75-2.61-3.67-10.54-3.91-18.58c-0.03-1.15-0.3-2.09-0.73-2.88c-0.54-0.31-1.07-0.62-1.6-0.91
		C33.4-6.69,29.84,24.45,17.14,27.2c-1.35,0.29-2.61,1.09-3.77,2.26c4.57,0.04,8.94,0.7,11.53,2.64
		C32.21,37.62,47.4,26.29,54.15,23.68z"/>
	<path class="st2" d="M46.33,74.14c-17.37,0.1-37.08,2.38-46.01-0.41C0.1,75.59,0,76.68,0,76.68s38.37,19.55,62.22,13.86
		c23.71-5.65,20.96-10.99,23.72-22.58C78.91,69.89,61.92,74.05,46.33,74.14z"/>
	<path class="st3" d="M46.33,74.14c15.59-0.09,32.58-4.25,39.61-6.18c0.02-0.07,0.03-0.14,0.05-0.2c0.65-2.71-0.28-4.88-1.98-6.8
		c-8.09,3.31-25.06,2.61-36.49,2.52c-15.4-0.12-14.33-5.21-14.33-5.21c-1.06-2.81,26.42-8.53,30.21-10.42
		c2.21-1.1,5.77-5.05,8.37-8.31c9.08-13.92-8.08-29.11-22.25-37.33c0.43,0.79,0.69,1.74,0.73,2.88c0.24,8.04,10.66,15.97,3.91,18.58
		s-21.94,13.93-29.26,8.43c-2.58-1.94-6.95-2.6-11.53-2.64C5.22,37.67,1.39,64.72,0.32,73.73C9.25,76.52,28.96,74.24,46.33,74.14z"
		/>
</g>
</svg>
