<?xml version="1.0" encoding="utf-8"?>
<!-- Generator: Adobe Illustrator 23.0.4, SVG Export Plug-In . SVG Version: 6.00 Build 0)  -->
<svg version="1.1" id="Layer_1" xmlns="http://www.w3.org/2000/svg" xmlns:xlink="http://www.w3.org/1999/xlink" x="0px" y="0px"
	 viewBox="0 0 14.61 12.67" style="enable-background:new 0 0 14.61 12.67;" xml:space="preserve">
<style type="text/css">
	.st0{fill:#C8C8C8;}
</style>
<path class="st0" d="M7.79,3.93c-0.3,0.37-7.09-2.55-7.48-2.32S-0.1,2.35,0.23,2.47C0.56,2.6,8.47,5.13,9.64,6.48
	s3.49,6.01,3.85,6.17c0.37,0.15,1.34-0.7,1.07-1.3s-2.76-3.42-2.92-4.58s-0.26-5.22-0.41-5.6c-0.15-0.38-0.82-0.54-0.9-0.03
	s0.51,4.6,0.09,4.55s-1.39-0.72-1.5-1.23s0.67-3.76,0.43-4.18s-0.53-0.33-0.68,0S8.15,3.48,7.79,3.93z"/>
</svg>
