<?xml version="1.0" encoding="utf-8"?>
<!-- Generator: Adobe Illustrator 23.0.4, SVG Export Plug-In . SVG Version: 6.00 Build 0)  -->
<svg version="1.1" id="Layer_1" xmlns="http://www.w3.org/2000/svg" xmlns:xlink="http://www.w3.org/1999/xlink" x="0px" y="0px"
	 viewBox="0 0 13.78 14.09" style="enable-background:new 0 0 13.78 14.09;" xml:space="preserve">
<style type="text/css">
	.st0{fill:#C8C8C8;}
</style>
<g>
	<path class="st0" d="M6.73,5.58c-1.35,0-6.86,6.09-6.72,6.87c0.14,0.78,1.33,0.52,3.42,0.79c2.09,0.27,5.58,0.84,6.92,0.86
		c1.34,0.02,2.85-0.65,3.41-1.55C14.3,11.63,8.08,5.58,6.73,5.58z M8.02,10.12c-0.05,0.09-0.17,0.12-0.26,0.07
		c-0.09-0.05-0.12-0.17-0.07-0.26c0.05-0.09,0.17-0.12,0.26-0.07C8.04,9.91,8.07,10.03,8.02,10.12z M9.64,10.75
		c-0.1,0.17-0.33,0.23-0.5,0.13c-0.17-0.1-0.23-0.33-0.13-0.5s0.33-0.23,0.5-0.13C9.68,10.35,9.74,10.57,9.64,10.75z M7.49,7.33
		c-0.2,0-0.37-0.16-0.37-0.37c0-0.2,0.16-0.37,0.37-0.37c0.2,0,0.37,0.16,0.37,0.37C7.85,7.16,7.69,7.33,7.49,7.33z M11.37,11.51
		c-0.05,0.09-0.17,0.12-0.26,0.07c-0.09-0.05-0.12-0.17-0.07-0.26c0.05-0.09,0.17-0.12,0.26-0.07
		C11.39,11.3,11.42,11.42,11.37,11.51z M8.94,8.04C8.88,8.13,8.77,8.17,8.68,8.11C8.59,8.06,8.56,7.95,8.61,7.86
		c0.05-0.09,0.17-0.12,0.26-0.07C8.96,7.84,8.99,7.95,8.94,8.04z"/>
	<path class="st0" d="M6.92,2.92c0.12,0,0.22-0.1,0.22-0.22c0-0.12-0.1-0.22-0.22-0.22S6.7,2.58,6.7,2.7
		C6.7,2.82,6.79,2.92,6.92,2.92z"/>
	<path class="st0" d="M5.99,5.1c0.05,0.03,0.13,0.01,0.16-0.04C6.18,5.01,6.16,4.94,6.1,4.91C6.05,4.87,5.98,4.89,5.95,4.95
		C5.92,5,5.94,5.07,5.99,5.1z"/>
	<path class="st0" d="M7.59,4.06C7.64,4.1,7.71,4.08,7.74,4.02C7.77,3.97,7.76,3.9,7.7,3.87C7.65,3.83,7.58,3.85,7.54,3.91
		C7.51,3.96,7.53,4.03,7.59,4.06z"/>
	<path class="st0" d="M6.86,0.21c0.05,0.03,0.13,0.01,0.16-0.04c0.03-0.05,0.01-0.13-0.04-0.16C6.92-0.02,6.85,0,6.82,0.06
		C6.79,0.11,6.81,0.18,6.86,0.21z"/>
</g>
</svg>
