<?xml version="1.0" encoding="utf-8"?>
<!-- Generator: Adobe Illustrator 23.0.4, SVG Export Plug-In . SVG Version: 6.00 Build 0)  -->
<svg version="1.1" id="Layer_1" xmlns="http://www.w3.org/2000/svg" xmlns:xlink="http://www.w3.org/1999/xlink" x="0px" y="0px"
	 viewBox="0 0 11.73 13.74" style="enable-background:new 0 0 11.73 13.74;" xml:space="preserve">
<style type="text/css">
	.st0{fill:#FFFFFF;}
</style>
<g>
	<path class="st0" d="M4.32,2.13C1.94,2.13,0,4.06,0,6.44s1.94,4.32,4.32,4.32c2.38,0,4.32-1.94,4.32-4.32S6.7,2.13,4.32,2.13z
		 M3.4,4.2c-0.38,0.15-0.77,0.06-0.88-0.2s0.12-0.6,0.49-0.75c0.38-0.15,0.77-0.06,0.88,0.2C4,3.71,3.78,4.04,3.4,4.2z"/>
	<path class="st0" d="M6.52,11.13c0,1.44,1.17,2.6,2.6,2.6s2.6-1.17,2.6-2.6s-1.17-2.6-2.6-2.6S6.52,9.7,6.52,11.13z M8.23,9.22
		C8.46,9.13,8.7,9.19,8.77,9.35c0.06,0.16-0.07,0.37-0.3,0.46C8.23,9.9,7.99,9.85,7.92,9.68C7.86,9.52,8,9.32,8.23,9.22z"/>
	<path class="st0" d="M10.74,1.95C10.74,0.88,9.86,0,8.78,0C7.7,0,6.83,0.88,6.83,1.95S7.7,3.91,8.78,3.91
		C9.86,3.91,10.74,3.03,10.74,1.95z M8.41,0.92c-0.17,0.07-0.36,0.03-0.4-0.09C7.96,0.7,8.06,0.55,8.24,0.48
		c0.17-0.07,0.36-0.03,0.4,0.09C8.69,0.69,8.59,0.85,8.41,0.92z"/>
</g>
</svg>
