<?xml version="1.0" encoding="utf-8"?>
<!-- Generator: Adobe Illustrator 23.0.4, SVG Export Plug-In . SVG Version: 6.00 Build 0)  -->
<svg version="1.1" id="Layer_1" xmlns="http://www.w3.org/2000/svg" xmlns:xlink="http://www.w3.org/1999/xlink" x="0px" y="0px"
	 viewBox="0 0 13.92 11.07" style="enable-background:new 0 0 13.92 11.07;" xml:space="preserve">
<style type="text/css">
	.st0{fill:#FFFFFF;}
</style>
<path class="st0" d="M13.62,2.94c-0.64-0.23-1.9,1.07-2.2,1.21c-0.31,0.15-0.66,0.15-0.81,0.15c-0.54,0-1.44-0.9-1.44-0.9
	s0.45-0.69,0.38-1.05C9.52,2.17,8.51,1.21,7.3,0.68c-1.39-0.6-3.03-0.76-3.46-0.65c-0.92,0.26-0.92,1.86-1.1,2.6
	c-0.31,0.1-0.59,0.22-0.82,0.38C1.01,3.66,0,4.87,0,5.58c0,0.84,1.71,1.8,3.7,2.39c0,0,0.36,1.01,0.7,1.51
	c0.33,0.5,1.47,1.72,1.82,1.58c0.35-0.14,0.33-1.39,0.14-1.93C6.16,8.59,5.68,8.27,5.68,8.27c0.66-0.01,1.24-0.15,1.76-0.35
	c0,0,1.14,1.13,1.66,1.13s1.98-0.67,1.98-1.5c0-0.54-0.46-0.85-0.78-0.85c-0.31,0-0.96,0.07-0.96,0.07C9.77,6.46,10.3,6.1,10.59,6.1
	c0.29-0.01,0.63-0.06,0.93,0.21c0.61,0.53,1.49,1.14,1.87,1.14C13.96,7.44,14.12,3.12,13.62,2.94z"/>
</svg>
