<?xml version="1.0" encoding="utf-8"?>
<!-- Generator: Adobe Illustrator 23.0.4, SVG Export Plug-In . SVG Version: 6.00 Build 0)  -->
<svg version="1.1" id="Layer_1" xmlns="http://www.w3.org/2000/svg" xmlns:xlink="http://www.w3.org/1999/xlink" x="0px" y="0px"
	 viewBox="0 0 7.84 13.71" style="enable-background:new 0 0 7.84 13.71;" xml:space="preserve">
<style type="text/css">
	.st0{fill:#FFFFFF;}
</style>
<g>
	<path class="st0" d="M5.49,11.01l-3.17,0.23c-0.14,0.01-0.24,0.13-0.23,0.27c0.01,0.14,0.13,0.24,0.27,0.23l3.17-0.23
		c0.14-0.01,0.24-0.13,0.23-0.27C5.75,11.11,5.63,11,5.49,11.01z"/>
	<path class="st0" d="M5.36,12.05l-2.91,0.21c-0.13,0.01-0.22,0.12-0.21,0.24c0.01,0.13,0.12,0.22,0.24,0.21l2.91-0.21
		c0.13-0.01,0.22-0.12,0.21-0.24C5.6,12.14,5.49,12.04,5.36,12.05z"/>
	<path class="st0" d="M3.92,13.71c0.53,0,0.96-0.23,0.96-0.65l-1.91,0.12C2.96,13.48,3.39,13.71,3.92,13.71z"/>
	<path class="st0" d="M3.92,0C2.15,0,0,1.58,0,3.55C0,4.8,0.37,5.48,0.8,6.28c0.26,0.48,0.52,0.96,0.75,1.61
		c0.16,0.47,0.3,0.94,0.41,1.36l0.01,0.03c0.12,0.45,0.29,1.05,0.41,1.2c0.05,0.01,0.2,0.04,0.52,0.05l-0.01-0.22
		C2.85,9.37,2.75,7.34,2.7,6.09H2.59c-0.55,0-0.99-0.36-1.06-0.88C1.49,4.94,1.56,4.68,1.74,4.48c0.17-0.2,0.42-0.31,0.66-0.31
		c0.55,0,0.92,0.37,0.92,0.92c0,0.05,0,0.17,0.01,0.35h1.07c0.01-0.18,0.01-0.3,0.01-0.35c0-0.55,0.37-0.92,0.92-0.92
		c0.25,0,0.49,0.12,0.66,0.31c0.18,0.2,0.25,0.46,0.21,0.73C6.14,5.73,5.71,6.09,5.16,6.09H5.04c-0.05,1.35-0.16,3.65-0.2,4.44
		c0.4-0.01,0.58-0.04,0.64-0.06c0.1-0.14,0.27-0.74,0.39-1.19l0.01-0.03C6,8.83,6.13,8.36,6.3,7.89c0.23-0.64,0.49-1.13,0.74-1.6
		c0.43-0.8,0.81-1.49,0.81-2.74C7.84,1.58,5.7,0,3.92,0z"/>
	<path class="st0" d="M5.67,5.13c0.02-0.15-0.05-0.25-0.09-0.3C5.52,4.76,5.43,4.71,5.34,4.71c-0.37,0-0.37,0.28-0.37,0.37
		c0,0.06-0.01,0.23-0.01,0.46h0.2C5.38,5.55,5.63,5.42,5.67,5.13z"/>
	<path class="st0" d="M3.24,5.98c0.06,1.42,0.18,4.05,0.21,4.67c0.15,0,0.31,0,0.46-0.01c0.12,0,0.25,0.01,0.38,0.01
		C4.32,10.02,4.44,7.4,4.5,5.98H3.68H3.24z"/>
	<path class="st0" d="M2.41,4.71c-0.09,0-0.18,0.05-0.25,0.12c-0.04,0.05-0.11,0.15-0.09,0.3c0.04,0.28,0.29,0.41,0.52,0.41h0.2
		c-0.01-0.23-0.01-0.4-0.01-0.46C2.78,4.99,2.78,4.71,2.41,4.71z"/>
</g>
</svg>
