<?xml version="1.0" encoding="utf-8"?>
<!-- Generator: Adobe Illustrator 23.0.4, SVG Export Plug-In . SVG Version: 6.00 Build 0)  -->
<svg version="1.1" id="Layer_1" xmlns="http://www.w3.org/2000/svg" xmlns:xlink="http://www.w3.org/1999/xlink" x="0px" y="0px"
	 viewBox="0 0 12.42 13.71" style="enable-background:new 0 0 12.42 13.71;" xml:space="preserve">
<style type="text/css">
	.st0{fill:#FFFFFF;}
</style>
<path class="st0" d="M12.41,3.11C12.23,2.91,9.89,3.6,8.52,5.1C7.26,6.49,6.87,8.59,7.34,9.17c-0.35,0.43-0.82,1.11-0.91,1.75
	c-0.02,0.16-0.05,0.35-0.07,0.55V8.4c0.66-0.24,1.27-2.05,1.27-3.97c0-0.5,0.04-1.33-0.18-2.06C7.15,1.33,6.53,0,6.21,0
	C5.9,0,5.27,1.33,4.97,2.37C4.75,3.1,4.79,3.93,4.79,4.43c0,1.92,0.61,3.73,1.27,3.97v3.07c-0.03-0.2-0.05-0.39-0.07-0.55
	C5.91,10.29,5.43,9.6,5.09,9.17C5.56,8.59,5.16,6.49,3.9,5.1C2.53,3.6,0.19,2.91,0.01,3.11c-0.18,0.2,1.87,3.86,2.53,4.54
	c0.62,0.64,1.62,1.83,2.29,1.68c0.33,0.4,0.79,1.05,0.87,1.63c0.13,0.95,0.33,2.71,0.34,2.73l0.03,0v0.03h0.3v-0.03l0.03,0
	c0-0.02,0.21-1.78,0.34-2.73c0.08-0.58,0.54-1.23,0.87-1.63c0.67,0.15,1.67-1.04,2.29-1.68C10.55,6.97,12.59,3.31,12.41,3.11z"/>
</svg>
