<?xml version="1.0" encoding="utf-8"?>
<!-- Generator: Adobe Illustrator 23.0.4, SVG Export Plug-In . SVG Version: 6.00 Build 0)  -->
<svg version="1.1" id="Layer_1" xmlns="http://www.w3.org/2000/svg" xmlns:xlink="http://www.w3.org/1999/xlink" x="0px" y="0px"
	 viewBox="0 0 10.64 11.65" style="enable-background:new 0 0 10.64 11.65;" xml:space="preserve">
<style type="text/css">
	.st0{fill:#FFFFFF;}
</style>
<g>
	<path class="st0" d="M5.99,6.34C6.38,5.78,6.74,5.2,7.06,4.6C7.39,4,7.68,3.38,7.94,2.75c0.18-0.42,0.35-0.85,0.5-1.29
		c-0.96-0.79-2.1-1.3-3.15-1.44C2.88-0.3,0,2.63,0,5.84c0,1.8,0.9,3.41,2.13,4.48c0.41-0.28,0.8-0.58,1.17-0.91
		C4.32,8.51,5.21,7.46,5.99,6.34z M6.19,2.84c0.08-0.12,0.25-0.15,0.37-0.06c0.12,0.08,0.1,0.16,0.01,0.3
		c-0.1,0.14-0.23,0.19-0.31,0.13C6.17,3.15,6.11,2.96,6.19,2.84z M5.69,1.29c0.24-0.34,0.6-0.5,0.79-0.36
		c0.2,0.14,0.13,0.33-0.16,0.72c-0.28,0.4-0.58,0.6-0.72,0.51C5.48,2.06,5.45,1.63,5.69,1.29z"/>
	<path class="st0" d="M9.24,6.97C8.91,7.44,8.57,7.91,8.2,8.35c-0.74,0.88-1.59,1.67-2.54,2.31c-0.24,0.16-0.48,0.31-0.74,0.45
		c-0.24,0.13-0.48,0.25-0.73,0.37c0.37,0.11,0.74,0.17,1.11,0.17c2.44,0,5.34-2.6,5.34-5.81c0-0.4-0.05-0.79-0.13-1.16
		c-0.11,0.28-0.24,0.55-0.38,0.82C9.86,6.01,9.56,6.5,9.24,6.97z M6.66,10.97c-0.17,0.09-0.36,0.05-0.43-0.08
		c-0.07-0.13,0.02-0.31,0.18-0.39c0.17-0.09,0.36-0.05,0.43,0.08S6.83,10.88,6.66,10.97z"/>
</g>
</svg>
